<?xml version="1.0" standalone="no"?>
<!DOCTYPE svg PUBLIC "-//W3C//DTD SVG 20010904//EN"
 "http://www.w3.org/TR/2001/REC-SVG-20010904/DTD/svg10.dtd">
<svg version="1.0" xmlns="http://www.w3.org/2000/svg"
 width="1103.000000pt" height="379.000000pt" viewBox="0 0 1103.000000 379.000000"
 preserveAspectRatio="xMidYMid meet">
<metadata>
Created by potrace 1.16, written by Peter Selinger 2001-2019
</metadata>
<g transform="translate(0.000000,379.000000) scale(0.100000,-0.100000)"
fill="#000000" stroke="none">
<path d="M5566 3758 c-16 -104 -17 -108 -34 -108 -32 -1 -107 -41 -145 -78
-56 -55 -80 -128 -72 -222 4 -41 11 -90 17 -109 10 -31 8 -35 -21 -58 -17 -13
-31 -34 -31 -45 0 -19 4 -20 68 -14 90 9 94 4 81 -94 -6 -41 -12 -76 -14 -78
-1 -2 -20 14 -41 34 -46 43 -98 84 -107 84 -20 0 -3 -63 27 -103 27 -35 31
-47 20 -51 -8 -3 -14 -17 -14 -32 0 -23 3 -25 23 -19 57 17 67 17 74 -1 9 -23
-20 -164 -55 -269 l-27 -80 -7 50 c-9 61 2 106 42 169 17 26 29 51 26 53 -11
11 -77 -9 -105 -32 -16 -14 -37 -45 -47 -70 -16 -38 -22 -43 -41 -38 -21 5
-23 2 -23 -31 0 -20 9 -54 20 -76 27 -53 26 -57 -17 -65 -52 -10 -90 -31 -98
-56 -10 -30 -1 -33 49 -19 54 15 99 7 94 -17 -2 -10 -22 -31 -45 -48 -23 -16
-42 -33 -42 -37 -2 -17 86 -7 126 14 l41 22 74 -69 c75 -70 115 -121 104 -132
-3 -3 -14 1 -24 10 -29 26 -70 21 -103 -12 -80 -80 22 -158 136 -104 34 16 36
16 50 -3 16 -21 35 -78 35 -109 0 -11 4 -26 9 -34 10 -15 31 -7 31 13 0 7 7
36 15 64 13 43 33 71 111 153 53 56 112 127 131 158 20 31 37 58 39 60 2 2 23
-13 48 -34 29 -23 59 -39 84 -42 64 -9 61 12 -13 83 -53 51 -66 69 -62 87 27
117 59 226 81 273 14 31 26 61 26 67 0 10 -49 5 -81 -8 -13 -5 -20 2 -29 29
-6 20 -29 63 -51 96 l-40 59 35 52 c35 49 47 99 26 99 -6 0 -35 -20 -66 -45
-56 -46 -77 -54 -90 -33 -13 21 -41 199 -32 204 5 3 21 9 37 14 28 8 29 7 41
-46 13 -53 34 -94 43 -84 2 3 2 112 -1 242 l-5 237 -29 -6 c-22 -4 -35 0 -56
19 -28 26 -65 42 -119 53 -32 6 -33 9 -33 53 0 61 -9 92 -26 92 -7 0 -15 -15
-18 -32z m-21 -187 c3 -5 -9 -11 -27 -13 -42 -4 -44 -18 -8 -56 17 -18 30 -43
30 -57 0 -24 -2 -25 -70 -25 -38 0 -70 -4 -70 -9 0 -5 16 -23 36 -39 36 -30
36 -30 27 -83 l-9 -54 -32 55 c-30 49 -33 61 -29 112 6 68 34 118 85 153 39
27 57 31 67 16z m211 -108 c21 -49 18 -132 -7 -172 -11 -18 -18 -40 -15 -47 3
-8 1 -14 -3 -14 -13 0 -21 27 -21 75 0 35 5 46 25 59 36 23 33 52 -6 60 -17 3
-47 6 -65 6 -29 0 -34 3 -34 24 0 16 7 27 21 31 11 4 25 18 31 31 l11 24 25
-22 c14 -13 31 -37 38 -55z m-53 -680 c3 -21 12 -104 18 -185 10 -113 10 -153
1 -173 -33 -73 2 -86 60 -23 32 35 41 40 48 28 13 -20 12 -26 -6 -63 -41 -81
-124 -157 -170 -157 -12 0 -25 -8 -28 -17 -12 -30 -25 6 -15 40 11 39 8 37 53
27 63 -14 94 14 42 38 -14 6 -36 31 -50 55 -22 37 -27 59 -32 158 l-6 114 36
23 c46 28 48 60 6 90 -37 28 -38 43 -2 64 37 24 39 23 45 -19z m-176 -9 c3 -8
-6 -23 -21 -35 -35 -28 -33 -61 5 -93 l31 -27 0 -174 c0 -96 -3 -184 -7 -195
-6 -20 -7 -20 -37 -3 -31 18 -138 137 -138 153 0 20 18 18 45 -6 28 -24 75
-33 75 -14 0 5 -9 24 -20 42 -25 41 -25 82 0 244 11 71 20 133 20 137 0 12 40
-13 47 -29z"/>
<path d="M7026 1691 c-3 -5 9 -18 28 -29 68 -40 67 -33 64 -521 -3 -482 0
-454 -65 -493 -28 -16 -30 -16 -84 18 -31 19 -112 57 -179 84 -136 56 -193 92
-239 147 -81 99 15 215 178 215 130 0 226 -45 291 -136 19 -25 37 -46 42 -46
15 0 8 73 -15 165 -26 100 -36 109 -92 79 -31 -16 -36 -16 -126 4 -52 12 -129
25 -171 28 l-77 7 -23 95 c-12 52 -27 100 -33 107 -8 10 -106 14 -418 18 -470
6 -454 10 -367 -78 l53 -53 7 -184 c8 -178 -2 -554 -16 -651 -4 -31 -14 -53
-27 -62 -12 -8 -22 -13 -24 -12 -1 2 4 25 12 52 33 108 9 232 -60 313 -22 25
-64 55 -107 76 -65 33 -78 36 -158 36 -181 0 -311 -74 -376 -214 -72 -155 13
-330 196 -402 63 -25 77 -26 171 -22 99 5 104 6 205 58 l103 53 373 6 373 6
27 55 c36 73 74 188 64 197 -4 4 -30 -18 -58 -50 -80 -92 -179 -138 -326 -152
-98 -10 -119 -3 -142 48 -17 36 -20 66 -20 228 l0 186 49 -8 c27 -4 62 -14 78
-23 30 -15 92 -78 111 -112 8 -15 14 -16 23 -7 9 9 9 23 -1 61 -15 63 -17 167
-7 255 7 58 6 67 -7 67 -9 0 -32 -25 -51 -55 -38 -59 -99 -102 -160 -112 l-37
-6 4 192 3 193 27 23 c40 34 142 51 221 35 89 -17 174 -61 231 -119 l48 -49
-32 -17 c-55 -28 -131 -107 -156 -160 -28 -58 -32 -156 -10 -209 19 -46 81
-112 130 -141 23 -12 90 -39 149 -59 136 -46 197 -76 254 -129 57 -53 75 -89
75 -151 0 -49 -2 -53 -55 -102 -77 -72 -142 -95 -282 -101 -101 -5 -115 -3
-168 19 -36 15 -87 50 -132 91 -69 63 -105 82 -105 55 0 -10 98 -246 106 -257
2 -2 22 8 44 23 37 24 42 25 68 12 60 -31 305 -53 416 -37 147 21 240 85 297
204 49 104 36 233 -32 319 l-30 38 141 0 c162 0 158 4 115 -102 -28 -70 -54
-101 -96 -118 -16 -7 -29 -16 -29 -21 0 -5 66 -9 146 -9 108 0 145 3 142 12
-2 6 -23 18 -46 26 -23 7 -42 18 -42 23 0 11 64 233 75 260 5 13 28 17 133 21
70 3 132 3 139 1 14 -5 69 -167 79 -229 6 -38 3 -43 -26 -66 -19 -15 -30 -30
-26 -37 5 -7 68 -11 197 -11 156 0 189 2 189 14 0 8 -16 24 -35 36 -19 12 -46
40 -59 63 -24 42 -100 260 -236 683 -74 231 -96 274 -143 274 -13 0 -31 -8
-40 -18 -38 -41 -128 -286 -207 -562 -46 -160 -60 -185 -87 -157 -17 16 -18
48 -18 375 0 196 4 401 8 455 9 96 10 99 48 139 21 23 39 43 39 45 0 8 -409 2
-414 -6z m642 -703 c17 -46 39 -112 50 -148 18 -60 18 -66 3 -72 -20 -8 -154
-10 -175 -2 -23 9 -20 28 18 145 43 131 58 169 67 164 3 -3 20 -42 37 -87z
m-2205 -218 c153 -97 165 -320 24 -434 -32 -25 -48 -31 -85 -30 -127 2 -219
115 -210 258 7 121 101 224 214 235 5 1 31 -12 57 -29z"/>
<path d="M9463 1643 c-22 -8 -14 -32 12 -39 13 -3 34 -21 45 -39 18 -29 20
-49 20 -187 0 -85 -3 -183 -6 -217 l-7 -61 -188 0 c-160 0 -189 -2 -189 -15 0
-8 22 -26 50 -40 62 -32 67 -49 62 -224 l-4 -134 -34 61 c-62 109 -139 157
-309 191 -108 22 -189 58 -232 103 -25 26 -28 37 -28 93 0 54 4 69 30 106 46
65 104 102 162 103 70 1 115 -26 225 -132 122 -118 129 -113 85 65 l-29 122
-68 -6 c-43 -4 -107 1 -179 12 -163 27 -278 6 -346 -63 -65 -64 -112 -197
-100 -275 24 -146 165 -274 360 -328 134 -36 163 -49 195 -85 53 -60 34 -142
-51 -218 -70 -64 -140 -90 -239 -91 -80 0 -89 2 -152 38 -38 21 -83 57 -104
83 -39 47 -69 69 -83 60 -10 -7 32 -218 54 -270 18 -42 28 -44 70 -12 47 36
90 41 160 16 134 -47 308 -34 451 34 74 35 113 77 147 157 l14 34 8 -59 c13
-97 0 -246 -24 -294 -22 -43 -82 -92 -113 -92 -10 0 -18 -7 -18 -15 0 -13 31
-15 218 -15 219 0 292 5 292 21 0 5 -24 20 -52 35 -102 51 -98 39 -98 265 0
147 3 200 13 206 16 10 699 4 710 -7 13 -12 -16 -60 -67 -110 -25 -24 -46 -50
-46 -56 0 -16 106 -28 170 -19 52 7 63 22 35 45 -24 20 -18 69 24 186 l39 109
58 6 c33 4 87 7 121 8 l62 1 19 -52 c33 -87 62 -189 62 -213 0 -15 -12 -33
-32 -49 -18 -14 -29 -29 -24 -33 10 -11 253 -16 344 -8 58 5 72 10 72 24 0 11
-15 22 -42 31 -40 14 -46 21 -90 110 -56 115 -156 390 -233 640 -31 102 -63
200 -71 218 -17 39 -54 56 -89 40 -27 -12 -32 -25 -120 -320 -71 -242 -68
-234 -102 -241 -16 -3 -35 -17 -45 -34 -33 -56 -153 -169 -207 -196 -95 -47
-216 -30 -263 35 -21 30 -21 34 -14 337 10 394 16 465 38 469 25 5 56 -36 73
-97 9 -31 58 -186 110 -346 95 -291 110 -324 148 -310 25 10 49 66 127 304
111 338 170 459 237 488 19 7 33 19 30 26 -7 23 -297 20 -297 -4 0 -5 17 -17
38 -28 68 -35 68 -28 -6 -249 -37 -111 -71 -201 -76 -199 -14 5 -125 335 -125
374 -1 22 8 40 29 61 17 17 30 35 30 40 0 14 -149 24 -240 16 l-80 -7 0 28 c0
17 10 36 30 53 17 15 30 30 30 34 0 9 -367 10 -387 1z m63 -716 c-9 -190 -27
-307 -47 -307 -11 0 -11 163 0 307 6 78 12 107 26 123 10 11 20 20 23 20 3 0
2 -64 -2 -143z m999 -10 c21 -63 35 -122 32 -131 -5 -13 -23 -16 -96 -16 l-89
0 9 38 c16 59 39 132 61 196 26 73 30 69 83 -87z"/>
<path d="M4587 1443 c-17 -16 -6 -43 21 -49 41 -9 72 -26 83 -46 12 -23 14
-799 2 -882 l-8 -59 -58 -20 c-103 -34 -71 -42 174 -42 195 0 224 2 227 16 1
8 -9 21 -22 29 -14 7 -36 29 -49 49 -23 35 -23 40 -19 222 l4 187 127 5 c160
6 206 21 282 96 83 81 106 169 74 278 -30 100 -154 199 -263 208 -89 8 -569
15 -575 8z m540 -114 c84 -40 130 -129 121 -229 -9 -91 -88 -147 -223 -157
l-74 -6 -6 35 c-4 20 -5 108 -3 197 2 130 6 164 18 171 27 18 121 11 167 -11z"/>
<path d="M3260 1432 c-50 -8 -63 -34 -20 -40 30 -5 56 -27 79 -67 14 -27 16
-79 16 -451 0 -406 -1 -423 -20 -444 -11 -12 -34 -28 -52 -35 -22 -9 -33 -21
-33 -35 0 -20 2 -20 308 -17 331 4 342 6 462 67 68 34 171 144 208 220 150
307 11 659 -306 778 -64 24 -77 25 -332 28 -146 1 -285 -1 -310 -4z m500 -102
c115 -33 189 -96 245 -209 115 -229 29 -559 -172 -658 -41 -20 -75 -28 -134
-31 -89 -5 -134 8 -143 41 -3 12 -6 97 -6 189 0 191 4 203 68 192 60 -10 95
-36 131 -97 31 -52 53 -69 65 -49 2 4 -2 36 -10 71 -11 44 -14 107 -12 207 2
79 2 144 1 144 -1 0 -8 2 -16 5 -10 4 -19 -9 -32 -42 -41 -111 -97 -173 -157
-173 -22 0 -26 5 -32 46 -10 75 -7 261 5 310 22 84 58 94 199 54z"/>
<path d="M1010 1388 c-11 -24 -29 -80 -41 -125 -11 -45 -27 -90 -34 -100 -12
-16 -14 -13 -26 26 -15 51 -26 57 -73 41 -29 -9 -40 -8 -73 9 -99 50 -255 65
-368 36 -89 -24 -150 -62 -224 -140 -121 -131 -158 -231 -147 -405 10 -170 47
-268 136 -360 108 -111 299 -172 468 -149 71 10 180 56 235 100 28 23 52 32
92 36 30 3 56 11 59 19 3 7 10 50 16 96 5 46 13 98 16 116 10 62 -26 38 -104
-68 -40 -55 -79 -100 -86 -100 -7 0 -21 9 -31 20 -18 20 -18 23 5 118 32 136
34 138 87 146 63 8 195 7 210 -2 6 -4 28 -60 47 -125 l36 -117 -30 -42 c-38
-51 -38 -68 -2 -68 42 0 72 -11 72 -26 0 -8 11 -53 25 -100 14 -47 25 -102 25
-121 0 -19 5 -43 11 -55 9 -17 17 -19 56 -13 24 3 63 13 86 21 44 16 67 14
200 -13 65 -13 91 -14 161 -4 99 14 181 40 231 74 35 24 42 25 142 19 98 -5
106 -4 100 12 -4 10 -7 19 -7 22 0 2 -18 13 -39 24 -22 11 -42 24 -45 29 -8
13 80 262 96 273 13 9 219 1 245 -9 23 -9 44 -61 64 -157 l19 -91 -24 -20
c-13 -11 -31 -25 -41 -31 -11 -6 -16 -17 -13 -26 5 -13 41 -16 221 -23 119 -4
225 -4 237 0 37 12 18 39 -55 75 l-70 35 -37 91 c-20 50 -84 233 -143 405
-137 401 -182 519 -201 519 -26 0 -53 -20 -69 -50 -17 -34 -166 -434 -226
-610 -23 -66 -45 -118 -49 -115 -4 3 -13 25 -19 49 -23 93 -119 161 -346 246
-60 22 -127 52 -148 66 -107 70 -100 194 13 252 94 49 223 9 341 -104 38 -37
72 -65 75 -62 3 3 -2 48 -11 99 -29 166 -28 164 -59 167 -15 2 -41 -1 -58 -7
-25 -9 -46 -7 -107 10 -147 42 -327 10 -417 -73 -53 -48 -74 -107 -74 -202 0
-90 22 -140 92 -209 61 -61 118 -90 274 -141 154 -50 221 -103 240 -189 9 -41
-13 -108 -47 -150 -36 -44 -135 -94 -209 -105 -111 -17 -262 27 -315 90 -34
40 -67 106 -60 118 4 6 66 10 145 10 116 0 139 2 144 16 3 9 6 17 6 19 0 1
-15 8 -32 15 -130 49 -129 47 -273 455 -37 105 -94 267 -126 360 -32 94 -65
180 -74 193 -10 14 -26 22 -46 22 -25 0 -32 -6 -49 -42z m-336 -203 c85 -18
142 -51 189 -109 l37 -45 -19 -53 c-11 -29 -43 -127 -71 -218 -79 -253 -102
-303 -161 -346 -74 -54 -67 -64 42 -64 84 0 90 -1 78 -17 -22 -26 -88 -51
-154 -58 -56 -6 -65 -4 -132 30 -227 114 -321 427 -197 655 36 66 120 166 161
191 38 23 106 47 138 48 11 0 51 -6 89 -14z m354 -175 c38 -95 72 -206 72
-232 0 -20 -5 -20 -95 -16 -53 3 -98 8 -101 10 -2 3 15 78 38 166 24 89 46
158 50 154 3 -4 20 -41 36 -82z m1450 -292 l51 -153 -27 -6 c-15 -4 -64 -7
-110 -8 l-82 -1 6 28 c32 131 88 292 103 292 4 0 30 -69 59 -152z"/>
</g>
</svg>
