<?xml version="1.0" standalone="no"?>
<!DOCTYPE svg PUBLIC "-//W3C//DTD SVG 20010904//EN"
 "http://www.w3.org/TR/2001/REC-SVG-20010904/DTD/svg10.dtd">
<svg version="1.0" xmlns="http://www.w3.org/2000/svg"
 width="220.000000pt" height="214.000000pt" viewBox="0 0 220.000000 214.000000"
 preserveAspectRatio="xMidYMid meet">

<g transform="translate(0.000000,214.000000) scale(0.100000,-0.100000)"
fill="#000000" stroke="none">
<path d="M962 2110 c-227 -32 -441 -138 -603 -300 -212 -212 -319 -486 -306
-785 18 -391 241 -731 592 -900 651 -313 1416 113 1497 833 66 599 -397 1134
-1002 1157 -63 2 -143 0 -178 -5z m276 -15 c133 -13 306 -78 442 -167 87 -57
224 -196 284 -288 302 -461 194 -1074 -248 -1402 -227 -169 -524 -238 -806
-187 -323 59 -610 281 -750 582 -208 447 -73 975 324 1269 145 108 336 181
511 197 88 8 116 8 243 -4z"/>
<path d="M1098 1960 c4 -69 15 -89 18 -32 1 15 2 29 3 32 0 2 13 -13 27 -33
14 -21 28 -36 31 -34 2 3 -3 17 -13 31 -16 25 -16 28 2 47 25 27 8 53 -37 57
l-34 3 3 -71z m57 35 c0 -11 -8 -21 -17 -23 -14 -3 -18 3 -18 23 0 20 4 26 18
23 9 -2 17 -12 17 -23z"/>
<path d="M1003 2008 c0 -7 -7 -37 -16 -65 -9 -29 -12 -53 -6 -53 5 0 9 9 9 20
0 12 7 20 18 20 12 0 13 3 5 8 -13 8 -7 52 7 52 4 0 11 -12 14 -26 8 -30 37
-77 43 -70 8 8 -49 126 -62 126 -6 0 -12 -6 -12 -12z"/>
<path d="M1220 2000 c-23 -23 -28 -88 -8 -108 19 -19 55 -14 72 10 23 33 21
95 -3 108 -28 14 -38 13 -61 -10z m58 -7 c5 -10 7 -32 5 -50 -10 -65 -63 -71
-63 -8 0 64 36 100 58 58z"/>
<path d="M875 1990 c-16 -17 -17 -25 -7 -58 13 -43 45 -64 77 -51 18 7 17 8
-6 8 -31 1 -45 15 -54 54 -10 37 9 59 43 50 17 -4 23 -2 18 6 -11 18 -51 13
-71 -9z"/>
<path d="M1467 1921 c3 -22 0 -54 -6 -72 -15 -42 -7 -49 13 -11 9 17 29 39 46
49 16 9 30 21 30 26 0 5 -11 2 -25 -7 -32 -21 -32 -21 -40 14 -10 45 -24 46
-18 1z"/>
<path d="M626 1901 c-43 -47 47 -144 92 -99 18 18 15 49 -8 86 -23 37 -57 43
-84 13z m56 -8 c42 -49 44 -97 4 -91 -25 4 -62 67 -53 91 8 22 30 22 49 0z"/>
<path d="M532 1842 c-18 -15 -32 -31 -32 -36 0 -6 7 -1 15 10 15 19 15 19 35
-4 11 -13 28 -36 39 -50 11 -15 22 -24 25 -21 3 3 -10 27 -29 54 -25 35 -32
51 -23 56 7 4 16 5 20 3 4 -3 8 0 8 5 0 19 -24 12 -58 -17z"/>
<path d="M978 1850 c-279 -51 -505 -229 -609 -482 -124 -301 -49 -645 189
-870 227 -214 541 -274 834 -161 99 39 178 92 263 178 121 120 192 255 222
420 17 94 12 239 -12 330 -70 270 -286 489 -557 565 -82 23 -255 34 -330 20z
m319 -31 c306 -77 534 -342 573 -665 28 -232 -52 -458 -224 -630 -213 -213
-501 -282 -791 -190 -119 38 -198 88 -305 196 -83 82 -102 108 -142 190 -51
104 -74 186 -84 296 -13 136 32 323 107 450 49 84 190 223 275 272 180 104
388 132 591 81z"/>
<path d="M812 1650 c-80 -36 -130 -80 -149 -129 -10 -25 -32 -70 -50 -100 -49
-82 -51 -109 -14 -204 30 -76 31 -83 15 -92 -9 -5 -41 -34 -70 -62 -45 -45
-50 -53 -32 -53 19 0 20 -1 6 -12 -13 -10 -14 -18 -6 -38 6 -14 10 -34 9 -45
0 -11 5 -38 13 -60 13 -36 18 -40 46 -38 35 1 37 -20 2 -25 -12 -2 -22 -8 -22
-14 0 -6 13 -8 30 -6 28 4 40 -5 22 -16 -10 -6 -9 -36 2 -54 6 -11 12 -10 27
4 23 21 24 12 3 -22 -28 -42 -9 -37 21 6 24 34 26 42 14 56 -7 9 -15 28 -17
42 -2 15 -7 31 -12 37 -5 6 -9 34 -8 61 1 32 -6 65 -19 94 -27 58 -34 92 -23
109 13 21 35 0 71 -68 36 -67 67 -111 121 -171 22 -24 47 -60 55 -79 8 -19 31
-55 51 -80 68 -84 164 -196 184 -213 25 -22 86 -23 116 -2 25 17 29 34 7 34
-10 0 -15 10 -15 30 0 25 -6 33 -37 48 -21 9 -41 21 -44 26 -4 5 -12 5 -18 2
-6 -4 -11 -2 -11 4 0 21 30 22 65 0 21 -13 42 -19 55 -15 22 7 41 -24 60 -102
11 -44 28 -54 50 -28 10 12 8 30 -7 89 -11 41 -17 80 -13 86 10 17 50 -11 95
-66 62 -75 73 -79 136 -48 82 41 91 51 74 84 -8 15 -30 41 -50 59 -20 17 -34
35 -31 40 3 5 22 12 41 15 43 8 55 30 55 95 0 61 14 101 36 101 13 0 15 6 11
30 -4 17 -2 30 3 30 6 0 19 9 30 20 19 19 19 20 -1 67 -11 26 -27 60 -35 75
-11 21 -16 69 -19 182 -4 166 -15 209 -58 225 -109 40 -195 65 -267 77 -76 13
-90 13 -135 -2 -49 -16 -52 -15 -127 10 -94 32 -175 34 -236 6z m238 -31 c57
-22 96 -45 135 -80 69 -64 93 -102 109 -181 7 -35 21 -78 30 -95 22 -43 20
-71 -8 -116 l-24 -39 30 -85 c22 -63 27 -88 19 -96 -19 -19 -46 6 -49 44 -4
45 -42 162 -56 171 -20 14 -126 8 -156 -7 -43 -22 -37 -38 6 -20 45 19 138 21
131 3 -2 -7 7 -32 20 -56 27 -45 25 -72 -5 -72 -22 0 -42 -19 -42 -39 0 -9
-26 -39 -57 -68 -38 -34 -52 -52 -41 -53 10 0 33 14 53 31 32 29 35 30 35 10
0 -27 16 -27 30 -1 6 11 23 26 39 35 26 13 30 13 45 -4 9 -10 14 -25 10 -35
-9 -23 -24 -20 -24 5 0 19 -3 18 -29 -10 -16 -17 -34 -31 -39 -31 -27 0 -72
-53 -79 -92 -5 -37 -7 -39 -20 -23 -7 11 -13 36 -13 57 0 26 -4 38 -14 38 -9
0 -16 17 -21 46 -6 43 -8 45 -23 30 -14 -14 -15 -20 -4 -37 18 -28 11 -32 -26
-13 -33 16 -44 43 -16 40 21 -1 39 27 31 48 -5 11 -19 16 -51 16 -51 0 -58 10
-62 95 -7 129 -22 193 -44 180 -10 -6 -111 53 -123 72 -4 7 -14 13 -22 13 -21
0 -42 47 -50 111 -7 59 -1 99 16 99 6 0 8 -4 5 -9 -7 -10 16 -71 26 -71 4 0 8
5 8 10 0 6 9 29 19 51 11 22 18 46 15 54 -4 11 20 75 29 75 1 0 20 7 42 15 64
23 127 18 215 -16z m269 0 c20 -7 52 -18 71 -25 19 -7 60 -18 90 -24 84 -16
95 -29 24 -28 -43 1 -71 -5 -92 -17 -25 -15 -36 -17 -55 -8 -18 8 -28 8 -36 0
-17 -17 -24 -1 -9 23 12 19 10 24 -15 46 -15 13 -37 24 -47 24 -10 0 -22 5
-25 10 -8 14 50 13 94 -1z m241 -139 c0 -5 10 -20 21 -31 35 -35 49 -139 19
-139 -22 0 -70 56 -70 82 0 32 -15 37 -30 9 -16 -30 -12 -39 20 -56 17 -9 30
-22 30 -30 0 -7 15 -19 34 -26 35 -13 53 -50 39 -85 -3 -8 6 -39 21 -68 15
-29 29 -69 33 -88 l5 -36 -51 0 c-49 -1 -52 0 -45 21 7 22 6 22 -14 4 -18 -16
-62 -96 -62 -112 0 -15 18 -2 28 20 6 13 28 31 48 40 44 18 55 19 33 2 -65
-51 -71 -58 -65 -73 6 -15 9 -14 31 6 21 20 25 21 25 7 0 -9 -4 -17 -10 -17
-6 0 -10 -30 -10 -70 0 -38 -4 -70 -9 -70 -10 0 -21 35 -21 72 0 50 -8 58 -63
58 -52 0 -97 26 -97 57 0 8 -9 32 -21 54 -14 28 -18 50 -14 70 6 28 9 29 63
30 31 1 62 0 67 -2 6 -1 22 -3 37 -2 18 0 29 -7 36 -23 10 -21 66 -43 79 -31
9 9 -17 46 -37 52 -20 6 -21 29 -4 113 5 26 -6 27 -71 11 -27 -7 -47 -18 -50
-29 -3 -10 -13 -21 -21 -24 -13 -5 -14 -2 -9 11 4 10 11 43 15 73 4 30 9 61
11 69 8 28 -17 20 -38 -13 -18 -28 -19 -35 -8 -40 12 -4 13 -11 5 -31 -6 -15
-10 -40 -10 -56 0 -35 15 -37 67 -9 40 21 83 27 83 10 0 -5 -7 -10 -16 -10 -9
0 -31 -9 -48 -19 -18 -12 -54 -20 -86 -22 -62 -3 -59 -11 -44 96 4 36 2 61
-10 89 -20 48 -21 119 -2 135 8 7 43 16 78 20 91 12 108 12 108 1z m-735 -294
c18 -12 20 -26 23 -140 2 -69 1 -126 -2 -126 -3 0 -25 10 -49 21 -55 27 -81
68 -73 114 4 19 2 36 -4 40 -15 9 -12 61 4 74 21 17 86 -15 86 -42 0 -6 -11 0
-24 13 -15 13 -32 20 -40 17 -25 -10 -19 -25 19 -43 19 -9 35 -23 35 -30 0
-21 18 -17 25 7 11 35 -13 76 -56 93 -21 9 -39 19 -39 22 0 10 73 -6 95 -20z
m65 -216 c-6 -12 -14 -19 -17 -17 -2 3 1 15 7 27 6 12 14 19 17 17 2 -3 -1
-15 -7 -27z m364 -6 c20 -19 21 -34 2 -34 -18 0 -39 27 -31 40 8 13 11 13 29
-6z m21 -209 c6 -55 5 -69 -10 -85 -19 -21 -60 -26 -83 -11 -17 10 -33 81 -23
99 9 15 79 60 98 61 7 1 14 -24 18 -64z m57 -12 c15 -15 28 -30 28 -34 0 -6
-55 -39 -64 -39 -1 0 -1 22 -1 50 0 27 2 50 4 50 3 0 18 -12 33 -27z m-342
-48 c25 -30 3 -25 -26 6 -22 24 -24 29 -8 21 11 -6 27 -18 34 -27z m444 -32
c8 -29 -5 -43 -40 -43 -23 0 -56 31 -39 37 6 2 21 10 35 17 35 20 37 19 44
-11z"/>
<path d="M777 1503 c-28 -32 -38 -70 -21 -84 17 -14 16 -14 38 26 17 29 17 11
1 -27 -4 -11 -3 -18 4 -18 6 0 13 11 17 25 3 13 12 29 20 36 21 17 17 29 -11
29 -17 0 -29 -8 -37 -25 -6 -14 -15 -25 -19 -25 -11 0 0 31 19 53 20 23 10 32
-11 10z"/>
<path d="M848 1453 c-19 -23 -29 -61 -17 -69 5 -3 9 3 9 14 0 11 9 31 21 46
23 29 11 37 -13 9z"/>
<path d="M877 1438 c-19 -30 -31 -68 -20 -68 9 0 45 81 39 88 -3 2 -11 -7 -19
-20z"/>
<path d="M906 1418 c-18 -25 -21 -48 -6 -48 6 0 10 8 10 19 0 10 7 24 15 31
13 11 14 8 9 -21 -5 -25 -4 -31 4 -24 6 6 13 21 14 35 4 33 -25 38 -46 8z"/>
<path d="M957 1354 c-3 -4 0 -16 8 -28 8 -11 15 -30 15 -42 0 -11 9 -29 20
-39 14 -13 20 -31 20 -62 0 -58 24 -58 50 2 l19 44 -32 33 c-18 19 -40 48 -49
66 -16 30 -36 40 -51 26z"/>
<path d="M1090 1300 c0 -12 84 -24 115 -16 45 11 26 21 -45 23 -38 1 -70 -2
-70 -7z"/>
<path d="M1222 1218 c7 -19 50 -21 73 -4 19 14 17 15 -28 16 -35 0 -47 -4 -45
-12z"/>
<path d="M984 1091 c10 -11 37 -24 60 -29 44 -9 140 -2 153 12 14 14 -30 38
-57 31 -78 -19 -111 -21 -128 -9 -9 7 -23 14 -31 14 -11 0 -10 -4 3 -19z"/>
<path d="M941 1052 c-21 -39 -13 -51 55 -82 74 -33 92 -37 74 -15 -7 8 -18 15
-25 15 -7 0 -28 19 -46 43 -18 23 -36 46 -40 51 -4 4 -12 -1 -18 -12z"/>
<path d="M1167 1039 c-10 -6 -27 -9 -38 -6 -23 6 -24 1 -4 -20 14 -13 18 -13
40 1 14 9 25 21 25 26 0 12 0 12 -23 -1z"/>
<path d="M1400 1075 c-16 -19 -6 -31 35 -45 53 -18 58 -8 16 27 -33 27 -41 30
-51 18z"/>
<path d="M782 1030 c-7 -12 -18 -17 -28 -13 -27 10 -11 -20 19 -37 35 -19 52
-4 42 39 -8 36 -15 39 -33 11z"/>
<path d="M1215 770 c-24 -9 -50 -38 -42 -46 7 -7 75 14 82 26 9 14 -19 28 -40
20z"/>
<path d="M679 683 c-8 -10 -21 -27 -29 -38 -15 -20 -15 -20 9 0 21 18 47 55
38 55 -2 0 -10 -8 -18 -17z"/>
<path d="M680 640 c-18 -26 -20 -32 -7 -27 14 5 15 2 6 -20 -7 -20 -6 -28 3
-34 28 -18 48 47 29 95 -7 17 -10 16 -31 -14z"/>
<path d="M1660 1780 c-34 -34 -36 -68 -6 -98 14 -15 26 -22 26 -15 0 6 -7 13
-15 17 -23 8 -18 52 9 83 20 23 28 26 43 17 10 -6 18 -16 18 -22 0 -6 3 -14 8
-18 4 -4 7 2 7 12 0 45 -55 59 -90 24z"/>
<path d="M480 1775 c8 -11 25 -32 38 -47 27 -29 24 -58 -5 -58 -9 0 -34 17
-55 37 -30 29 -41 34 -50 25 -9 -9 -8 -12 4 -12 9 0 23 -11 32 -25 10 -14 28
-31 41 -37 20 -9 29 -8 45 7 30 27 25 46 -22 90 -23 22 -36 31 -28 20z"/>
<path d="M1745 1693 c-22 -23 -41 -46 -43 -51 -3 -10 36 -52 49 -52 14 0 101
71 95 78 -3 2 -25 -13 -50 -33 -38 -31 -49 -35 -61 -25 -23 19 -18 35 26 75
23 20 37 40 33 44 -5 4 -27 -12 -49 -36z"/>
<path d="M352 1670 c-18 -21 -28 -41 -23 -44 5 -3 11 4 14 15 6 20 9 19 58
-20 29 -23 55 -39 58 -35 6 5 -6 16 -69 66 -24 19 -24 20 -7 33 10 7 14 15 10
18 -5 3 -23 -12 -41 -33z"/>
<path d="M1827 1596 c-26 -18 -50 -36 -53 -39 -9 -9 36 -68 47 -61 5 3 -1 14
-13 24 -19 15 -20 20 -9 34 18 22 42 20 48 -4 3 -11 10 -17 15 -14 5 3 2 14
-8 25 -17 18 -16 20 2 33 21 16 44 5 44 -20 0 -8 5 -14 10 -14 16 0 12 13 -13
42 l-22 27 -48 -33z"/>
<path d="M295 1590 c-3 -5 1 -10 10 -10 9 0 36 -14 61 -30 24 -17 44 -26 44
-21 0 11 -83 71 -99 71 -5 0 -13 -4 -16 -10z"/>
<path d="M261 1534 c-12 -19 -21 -41 -21 -47 1 -7 6 -2 13 10 l12 22 50 -29
c28 -16 54 -30 58 -30 18 0 -6 21 -53 46 -48 26 -49 28 -34 46 10 10 12 18 7
18 -6 0 -20 -16 -32 -36z"/>
<path d="M1900 1517 c-64 -36 -82 -49 -77 -54 3 -2 19 3 36 12 36 18 38 12 12
-32 -11 -17 -17 -34 -14 -37 4 -3 14 6 23 21 11 20 24 27 46 28 22 0 30 5 32
22 2 13 -3 31 -10 41 -13 18 -14 18 -48 -1z m47 -23 c10 -26 -14 -41 -35 -21
-15 16 -15 19 -2 27 21 14 30 12 37 -6z"/>
<path d="M211 1434 c-9 -20 -9 -30 0 -40 15 -19 43 -18 59 1 7 9 23 15 34 13
21 -3 24 -16 11 -53 -7 -20 -6 -20 9 -1 19 24 20 48 4 64 -17 17 -36 15 -65
-8 -32 -25 -47 -16 -39 21 7 36 3 37 -13 3z"/>
<path d="M1960 1417 c-14 -12 -38 -32 -54 -45 -16 -12 -27 -24 -25 -27 3 -2
35 -7 72 -11 47 -5 67 -3 67 5 0 7 -21 11 -57 11 -48 1 -55 3 -42 13 59 46 70
57 67 66 -1 5 -14 0 -28 -12z"/>
<path d="M230 1342 l45 -16 -54 -16 c-30 -8 -56 -20 -58 -26 -2 -5 20 -16 49
-23 29 -8 59 -16 67 -19 9 -3 12 -1 8 5 -4 6 -25 14 -47 18 -60 10 -56 21 10
35 33 7 60 16 60 20 0 10 -87 40 -109 39 -9 0 4 -8 29 -17z"/>
<path d="M1954 1303 c-12 -2 -30 -13 -40 -24 -17 -19 -17 -23 -3 -47 18 -33
56 -39 98 -17 35 18 42 53 15 79 -15 16 -28 17 -70 9z m74 -39 c5 -37 -98 -63
-112 -28 -12 31 25 55 79 51 22 -1 31 -8 33 -23z"/>
<path d="M157 1223 c-3 -5 23 -13 59 -19 35 -5 64 -6 64 -3 0 16 -114 36 -123
22z"/>
<path d="M155 1006 c-8 -13 -13 -31 -9 -40 8 -22 50 -31 69 -16 21 18 19 57
-4 70 -29 15 -39 13 -56 -14z"/>
<path d="M1987 1012 c-30 -33 -15 -72 28 -72 43 0 59 44 27 73 -24 22 -35 21
-55 -1z"/>
<path d="M1876 784 c-13 -49 34 -72 69 -34 33 37 86 12 55 -25 -7 -9 -10 -19
-6 -22 11 -11 26 19 24 46 -6 48 -42 51 -100 9 -25 -18 -44 2 -29 31 7 12 8
21 2 21 -5 0 -12 -12 -15 -26z"/>
<path d="M251 738 l-54 -58 64 1 c35 0 73 5 84 10 14 6 -2 8 -50 4 l-70 -6 48
49 c27 27 45 52 40 54 -4 2 -32 -22 -62 -54z"/>
<path d="M1841 694 c-26 -33 -16 -62 33 -87 44 -23 78 -17 94 17 14 31 -7 62
-54 82 -45 19 -49 18 -73 -12z m97 -20 c31 -21 27 -58 -8 -62 -51 -5 -111 54
-83 82 11 10 62 -1 91 -20z"/>
<path d="M360 661 c0 -5 -20 -21 -44 -35 -25 -15 -48 -31 -51 -36 -7 -12 22
-70 36 -70 6 0 1 12 -10 26 l-21 26 23 18 c23 19 47 11 47 -16 0 -15 12 -19
23 -8 3 4 -4 15 -16 25 -22 18 -22 18 -2 33 27 21 34 20 47 -9 6 -14 15 -25
20 -25 5 0 -2 18 -14 40 -22 38 -38 51 -38 31z"/>
<path d="M1810 634 c0 -6 14 -29 31 -52 17 -24 30 -45 27 -47 -2 -2 -28 2 -58
10 -53 14 -70 13 -70 -6 0 -6 4 -8 8 -5 5 3 34 -2 66 -10 87 -23 92 -18 50 46
-44 65 -54 78 -54 64z"/>
<path d="M410 547 c-14 -12 -38 -32 -54 -45 -16 -12 -27 -25 -23 -28 6 -6 53
22 80 49 22 22 42 18 42 -9 0 -14 -7 -19 -28 -19 -23 0 -31 -7 -43 -34 -16
-38 -18 -51 -5 -51 4 0 12 15 18 33 7 25 14 31 32 29 25 -4 51 13 51 34 0 7
-10 24 -22 38 l-23 26 -25 -23z"/>
<path d="M494 492 c5 -8 -9 -28 -41 -56 -26 -24 -44 -48 -40 -52 4 -4 30 15
58 42 47 47 49 52 33 65 -12 9 -15 10 -10 1z"/>
<path d="M1635 435 c-33 -28 -38 -36 -27 -47 11 -11 12 -10 7 3 -4 10 -1 20 6
25 8 5 29 -11 61 -47 28 -32 48 -47 48 -38 0 9 -9 24 -21 35 -12 10 -30 31
-41 47 l-19 27 22 8 c12 5 18 11 13 15 -5 3 -28 -10 -49 -28z"/>
<path d="M524 448 c-4 -6 -3 -8 3 -5 6 4 16 1 22 -6 8 -10 -1 -26 -35 -65 -57
-65 -41 -69 20 -4 37 38 48 44 55 32 5 -8 7 -19 4 -25 -3 -5 0 -4 7 2 11 11 9
17 -11 39 -33 35 -56 47 -65 32z"/>
<path d="M1565 380 c-3 -5 -3 -10 2 -10 4 0 23 -23 42 -50 30 -44 51 -62 51
-44 0 9 -75 113 -82 114 -4 0 -10 -4 -13 -10z"/>
<path d="M640 372 c0 -6 -23 -27 -50 -47 -28 -21 -49 -40 -46 -43 3 -2 12 1
21 8 24 20 64 -11 58 -44 -3 -14 -1 -26 3 -26 5 0 16 32 25 70 13 58 13 72 2
81 -8 8 -13 8 -13 1z m-8 -74 c-7 -7 -16 -7 -27 0 -16 8 -15 11 6 26 22 15 24
15 27 0 2 -9 -1 -21 -6 -26z"/>
<path d="M1475 330 c-16 -11 -25 -20 -18 -20 7 0 27 -25 45 -55 18 -30 36 -55
39 -55 3 0 18 9 33 21 30 24 34 53 7 71 -10 7 -21 23 -25 36 -9 28 -41 29 -81
2z m63 -15 c4 -16 -12 -34 -30 -35 -14 0 -20 43 -7 51 19 12 33 6 37 -16z m40
-59 c4 -17 -12 -35 -30 -36 -12 0 -29 40 -23 51 11 16 49 6 53 -15z"/>
<path d="M702 318 c-17 -17 -15 -32 8 -71 18 -30 19 -36 5 -47 -12 -10 -20 -9
-40 4 -14 9 -25 12 -25 7 0 -17 40 -33 65 -27 33 8 38 33 15 71 -11 18 -20 37
-20 44 0 15 33 14 48 -1 9 -9 12 -9 12 0 0 11 -31 32 -47 32 -5 0 -14 -5 -21
-12z"/>
<path d="M1389 293 c-2 -11 -2 -9 5 -82 7 -69 16 -94 16 -44 0 43 39 60 68 30
12 -11 24 -18 28 -14 4 3 -17 31 -46 62 -51 52 -69 64 -71 48z m48 -75 c-21
-14 -27 -8 -27 23 l0 31 19 -23 c14 -17 16 -26 8 -31z"/>
<path d="M1270 260 c-14 -4 -20 -8 -13 -9 7 -1 17 -28 24 -61 13 -66 36 -99
26 -37 -3 21 -3 37 1 37 3 0 21 -14 39 -32 18 -18 33 -27 33 -22 0 6 -11 21
-25 34 -24 22 -24 24 -8 42 34 38 -15 68 -77 48z m67 -16 c7 -19 -20 -49 -36
-40 -6 4 -11 18 -11 32 0 17 5 24 20 24 11 0 23 -7 27 -16z"/>
<path d="M894 243 c-1 -10 -5 -41 -9 -70 -7 -50 -7 -52 19 -59 31 -7 56 0 56
18 0 10 -2 10 -9 0 -5 -8 -17 -12 -27 -10 -21 4 -24 34 -11 101 6 28 5 37 -5
37 -8 0 -14 -8 -14 -17z"/>
<path d="M993 237 c3 -8 2 -40 -2 -71 -8 -60 4 -90 13 -34 12 72 11 111 -3
116 -10 3 -12 0 -8 -11z"/>
<path d="M1168 242 c-13 -5 -15 -11 -8 -22 5 -8 10 -28 10 -45 1 -54 11 -75
35 -75 30 0 55 10 55 21 0 5 -8 4 -19 -2 -26 -17 -51 -4 -51 26 0 20 5 25 25
25 16 0 25 6 25 15 0 13 -3 13 -20 3 -17 -11 -22 -10 -30 2 -17 25 -7 45 23
45 15 -1 27 3 27 7 0 10 -48 9 -72 0z"/>
<path d="M1048 171 c3 -64 5 -70 28 -75 34 -9 64 10 64 39 0 13 -4 27 -10 30
-6 4 -5 13 2 25 17 27 -6 50 -51 50 l-36 0 3 -69z m67 34 c0 -13 -8 -21 -22
-23 -19 -3 -23 1 -23 23 0 22 4 26 23 23 14 -2 22 -10 22 -23z m-11 -41 c23
-9 20 -51 -3 -57 -25 -6 -31 0 -31 35 0 29 6 33 34 22z"/>
</g>
</svg>
