<?xml version="1.0" standalone="no"?>
<!DOCTYPE svg PUBLIC "-//W3C//DTD SVG 20010904//EN"
 "http://www.w3.org/TR/2001/REC-SVG-20010904/DTD/svg10.dtd">
<svg version="1.0" xmlns="http://www.w3.org/2000/svg"
 width="361.000000pt" height="352.000000pt" viewBox="0 0 361.000000 352.000000"
 preserveAspectRatio="xMidYMid meet">
<metadata>
Created by potrace 1.16, written by Peter Selinger 2001-2019
</metadata>
<g transform="translate(0.000000,352.000000) scale(0.100000,-0.100000)"
fill="#000000" stroke="none">
<path d="M1665 3439 c-716 -59 -1319 -563 -1510 -1262 -73 -271 -73 -623 0
-894 218 -800 968 -1329 1790 -1263 833 67 1483 700 1574 1532 43 391 -58 803
-278 1130 -299 444 -762 715 -1295 758 -140 11 -136 11 -281 -1z m475 -47
c228 -48 468 -151 650 -279 138 -97 329 -293 419 -427 128 -193 208 -376 255
-587 127 -568 -42 -1149 -454 -1559 -149 -150 -269 -237 -445 -324 -236 -117
-425 -164 -695 -173 -186 -6 -291 3 -442 38 -86 20 -87 21 -76 45 15 32 42 32
36 0 -4 -18 0 -26 14 -29 40 -11 35 51 -7 73 -14 7 -25 19 -25 27 0 17 10 16
32 -4 16 -14 18 -14 18 -1 0 27 -27 41 -65 34 -25 -5 -35 -3 -35 6 0 26 40
168 55 197 20 39 19 72 -2 110 -10 16 -15 33 -11 36 11 11 117 -108 117 -130
0 -11 -8 -40 -19 -64 -19 -41 -19 -45 -4 -62 11 -13 14 -27 10 -46 -18 -71
-19 -86 -6 -81 16 5 24 20 41 75 11 38 10 45 -6 63 -18 19 -18 22 -2 56 28 57
22 81 -33 141 -27 30 -50 58 -50 62 0 4 -11 13 -26 19 -23 11 -26 10 -39 -22
-8 -19 -20 -79 -26 -133 -15 -125 -20 -139 -58 -146 -22 -5 -31 -12 -31 -26 0
-26 -10 -51 -21 -51 -5 0 -26 18 -48 40 -42 43 -51 48 -51 26 0 -23 -20 -30
-34 -11 -8 11 -27 18 -52 19 -36 1 -39 -1 -39 -26 l1 -27 -36 21 c-32 19 -71
50 -44 35 7 -4 13 13 17 51 4 31 9 72 13 90 5 26 3 32 -10 32 -10 0 -16 -9
-16 -24 0 -32 -17 -42 -39 -22 -10 9 -23 16 -29 16 -17 0 -62 51 -74 83 -13
37 -25 34 -43 -10 -12 -29 -13 -44 -6 -61 18 -37 14 -36 -49 19 -33 28 -58 55
-55 59 2 4 33 15 67 25 77 21 88 29 88 66 0 15 4 38 9 52 5 13 5 30 1 38 -7
11 -15 9 -40 -9 -41 -31 -51 -21 -44 43 12 96 -13 134 -61 92 -22 -19 -26 -32
-29 -102 -2 -44 -7 -88 -11 -99 -6 -14 -4 -18 6 -14 10 3 15 27 17 88 2 46 8
90 14 97 21 26 29 0 24 -78 -7 -89 3 -103 48 -74 24 16 46 14 46 -4 0 -14 -92
-54 -129 -56 -18 -1 -37 -8 -40 -14 -5 -8 -21 3 -48 32 -36 39 -40 49 -46 114
-6 66 1 110 28 175 5 13 2 18 -9 18 -8 0 -18 -10 -21 -23 -20 -88 -23 -117
-18 -154 3 -24 3 -43 0 -43 -3 0 -19 18 -35 41 -32 42 -33 66 -14 179 11 59
18 70 48 70 39 0 64 -18 64 -46 0 -19 4 -25 17 -22 14 3 17 12 15 38 -4 55 -8
60 -51 60 -46 0 -62 19 -54 63 4 22 2 27 -16 27 -13 0 -19 5 -15 14 4 11 -34
46 -51 46 -10 0 -5 -31 10 -53 20 -31 5 -91 -33 -131 -16 -17 -31 -37 -34 -44
-2 -8 -16 13 -32 46 l-29 61 48 77 c58 93 78 114 107 114 38 0 109 33 105 50
-2 11 -15 14 -55 13 -62 -3 -69 14 -22 47 l31 22 43 -46 c23 -25 47 -46 54
-46 18 0 26 22 11 31 -12 7 -12 12 -1 30 13 20 11 25 -18 53 l-32 31 7 -32 c8
-40 -11 -45 -25 -8 -11 30 -35 32 -50 5 -19 -36 -40 -24 -40 23 0 45 13 67 40
67 12 -1 12 -2 -2 -11 -18 -10 -26 -49 -10 -49 4 0 20 7 35 15 16 8 40 12 56
9 17 -4 32 -1 36 6 10 17 -13 30 -53 30 -20 0 -35 6 -39 16 -3 9 -15 19 -27
24 -20 7 -19 9 9 20 74 29 138 40 174 30 82 -23 82 -49 1 -30 -28 7 -54 9 -57
6 -8 -8 -10 -7 69 -50 68 -37 113 -80 102 -97 -10 -16 -24 -9 -34 15 -5 14
-19 30 -31 37 -20 10 -26 8 -46 -15 -13 -15 -23 -38 -23 -52 0 -14 -4 -33 -10
-43 -7 -14 -4 -24 15 -41 30 -28 34 -56 8 -45 -10 4 -38 9 -61 11 -38 3 -43 1
-37 -14 5 -12 -7 -29 -42 -59 -61 -54 -45 -56 25 -3 50 38 92 52 92 30 0 -5
-4 -10 -10 -10 -17 0 -11 -29 9 -40 13 -7 22 -27 28 -62 7 -41 12 -52 25 -50
9 1 22 -6 30 -16 7 -10 28 -22 47 -28 19 -5 43 -22 55 -37 19 -25 19 -31 7
-75 -16 -56 -32 -155 -25 -161 10 -10 17 11 21 61 3 29 11 67 19 85 8 17 14
44 14 61 0 31 -33 82 -54 82 -7 0 -21 9 -31 20 -9 10 -33 24 -51 30 -30 10
-34 16 -34 46 0 19 -7 46 -16 59 -16 25 -15 27 21 29 17 1 20 9 23 58 3 65 22
85 65 69 24 -9 67 -71 67 -94 0 -7 -19 -23 -41 -37 -46 -28 -63 -60 -54 -102
9 -37 25 -26 25 16 0 38 21 61 65 72 17 4 39 17 51 28 11 12 29 26 40 32 20
13 20 15 -23 80 -12 18 -11 24 8 48 24 30 19 56 -11 56 -11 0 -20 4 -20 9 0 5
33 11 73 15 39 3 100 8 135 12 101 11 73 -12 -33 -27 -52 -7 -95 -16 -95 -21
0 -4 6 -8 13 -9 26 -2 93 2 130 7 35 5 37 4 37 -20 0 -15 7 -29 15 -32 22 -9
18 -22 -7 -26 -18 -2 -24 -12 -29 -43 -6 -34 -3 -44 17 -66 30 -32 30 -39 -1
-39 -14 0 -25 -3 -25 -7 0 -5 -14 -22 -30 -40 -17 -18 -30 -37 -30 -42 0 -7
38 -11 106 -11 58 0 115 -5 126 -11 28 -15 65 19 51 47 -22 44 -11 135 16 134
25 -1 30 -18 21 -75 -9 -56 -8 -61 12 -77 l23 -17 -23 -23 c-12 -14 -22 -37
-22 -54 0 -33 -48 -184 -59 -184 -4 0 -16 6 -26 14 -18 13 -18 14 3 25 12 6
22 20 22 31 0 10 5 22 10 25 6 4 8 21 4 41 -5 26 -2 35 10 40 22 8 20 31 -3
44 -11 5 -76 12 -146 15 -69 2 -130 7 -135 10 -13 8 -30 -3 -30 -20 0 -7 12
-15 28 -17 24 -3 27 -6 24 -37 -5 -42 -55 -96 -90 -96 -31 0 -40 -20 -13 -28
57 -14 120 43 128 118 3 24 11 46 19 49 16 6 143 -13 167 -25 9 -6 17 -19 17
-30 0 -36 -29 -89 -54 -101 -16 -7 -26 -19 -26 -32 0 -14 -12 -28 -34 -40 -66
-35 -70 -110 -8 -152 23 -16 28 -24 19 -33 -8 -8 -6 -15 9 -26 48 -37 94 -26
94 23 0 36 -27 62 -65 62 -39 0 -58 19 -53 57 4 35 49 60 82 45 21 -10 21 -10
1 -17 -56 -19 -66 -26 -63 -43 2 -12 16 -18 47 -22 37 -4 46 -10 64 -41 18
-31 19 -41 9 -63 -19 -43 -53 -52 -101 -28 -61 32 -70 -7 -10 -42 39 -23 83
-15 121 21 37 35 38 86 3 138 -15 20 -24 39 -22 41 6 7 53 -58 61 -84 20 -63
52 34 50 152 -1 39 -6 72 -11 73 -11 4 -43 -66 -43 -92 0 -8 7 -15 15 -15 10
0 15 -11 15 -35 0 -40 -15 -47 -24 -10 -4 16 -13 25 -26 25 -28 0 -26 44 5
112 14 30 30 82 36 114 13 72 28 97 68 114 38 15 41 49 11 128 -22 57 -26 97
-10 107 15 9 13 75 -3 75 -12 0 -38 -61 -38 -90 -1 -11 -11 -16 -35 -16 -32 0
-33 1 -15 18 11 9 25 42 32 72 11 53 11 56 -14 85 -27 33 -44 88 -31 101 5 4
18 10 28 12 30 5 43 34 28 59 -10 16 -10 24 -1 35 6 7 9 20 6 28 -3 8 0 20 8
26 17 14 58 -5 94 -44 l25 -26 -35 -30 c-19 -16 -42 -32 -51 -35 -9 -3 -20
-15 -23 -26 -4 -10 -15 -24 -26 -29 -19 -11 -26 -40 -12 -53 4 -4 18 4 32 17
45 43 71 42 114 -2 l39 -40 -23 -16 c-21 -14 -24 -14 -41 1 -16 15 -18 14 -27
-8 -13 -36 1 -42 58 -25 l51 15 0 -24 c0 -14 9 -29 20 -35 27 -14 16 -30 -21
-30 -22 0 -29 5 -29 20 0 17 -5 19 -32 13 -18 -3 -37 -9 -41 -13 -13 -12 43
-42 85 -46 54 -5 58 -9 58 -55 0 -35 -4 -42 -35 -60 -19 -12 -35 -27 -35 -34
0 -7 20 -26 45 -42 25 -15 45 -33 45 -39 0 -5 -19 -23 -41 -40 -94 -67 -111
-86 -116 -139 -6 -56 6 -54 22 3 8 29 25 47 85 89 41 29 80 59 86 67 5 8 17
14 25 13 16 -2 19 3 19 38 0 17 -9 29 -30 40 -33 17 -40 35 -12 35 12 0 25 16
39 49 l20 49 59 7 c35 4 70 2 87 -4 25 -10 27 -14 22 -45 -4 -19 -2 -36 3 -40
14 -9 3 -115 -14 -143 -8 -13 -21 -23 -29 -23 -27 0 -27 -22 2 -53 68 -76 66
-67 43 -138 -26 -83 -25 -87 8 -102 15 -6 32 -19 39 -27 10 -13 13 -13 30 3
48 42 103 -2 103 -83 0 -26 -4 -60 -9 -76 -5 -16 -19 -62 -32 -102 -14 -45
-31 -77 -42 -84 -13 -7 -17 -16 -13 -32 5 -21 3 -23 -32 -21 -21 1 -48 8 -61
14 -34 19 -49 -1 -22 -28 22 -22 56 -28 66 -11 8 12 16 12 35 0 13 -8 13 -11
1 -19 -9 -6 -11 -18 -7 -36 6 -23 10 -26 34 -20 15 3 31 10 36 15 13 13 -2 30
-27 31 -22 0 -22 0 1 10 17 6 22 14 17 29 -6 20 32 140 45 140 11 0 2 -87 -11
-111 -17 -32 6 -50 27 -21 8 12 22 22 30 22 23 0 -11 -59 -41 -70 -43 -16 -25
-47 21 -36 13 4 24 14 24 24 0 9 7 26 15 36 8 11 15 32 15 47 0 22 -6 28 -31
33 -37 7 -34 30 5 34 34 4 56 50 56 119 0 61 -18 46 -28 -23 -6 -39 -11 -50
-28 -52 -41 -6 -48 20 -29 112 17 88 10 159 -18 169 -7 2 -14 31 -17 73 -4 52
-9 69 -20 69 -9 0 -16 -11 -18 -25 -3 -30 -43 -110 -55 -110 -11 0 -57 51 -53
59 2 3 11 32 20 63 23 80 78 139 137 147 49 7 63 27 24 37 -14 3 -30 14 -35
24 -13 23 -13 87 -1 94 19 12 130 22 145 14 12 -7 15 -18 10 -47 -7 -45 13
-71 55 -71 16 0 49 -3 73 -6 l45 -6 8 -115 c5 -83 3 -127 -6 -159 -15 -51 -29
-57 -29 -14 0 24 -8 34 -43 55 -54 31 -73 31 -89 3 -15 -26 -37 -113 -38 -145
0 -19 5 -23 31 -23 42 0 64 14 79 49 11 27 10 35 -9 67 -12 20 -20 38 -19 40
2 1 18 -6 36 -18 36 -22 41 -51 18 -96 -25 -47 -58 -70 -106 -74 -32 -2 -45
-7 -45 -18 0 -12 11 -14 50 -12 63 5 86 19 109 71 11 22 22 38 26 36 9 -6 -25
-152 -39 -169 -8 -10 -6 -20 9 -38 19 -25 19 -26 1 -31 -19 -5 -35 -54 -20
-63 5 -2 14 4 21 16 16 25 38 26 38 2 0 -10 5 -23 11 -29 13 -13 8 -58 -6 -58
-5 0 -11 15 -13 33 -4 38 -19 42 -32 7 -11 -28 -18 -30 -42 -11 -15 11 -16 21
-8 72 6 32 10 60 10 61 0 0 -9 -1 -20 -4 -21 -5 -28 11 -10 22 17 11 11 25
-10 25 -14 0 -20 6 -18 18 2 10 -3 17 -12 17 -11 0 -17 -16 -23 -55 -14 -100
-13 -104 7 -108 16 -3 17 1 11 36 -4 25 -2 42 4 47 7 3 11 -2 11 -13 0 -11 7
-22 15 -26 17 -6 10 -35 -13 -53 -14 -11 -14 -15 2 -32 10 -11 13 -21 7 -25
-5 -4 -17 3 -25 16 l-15 21 -10 -26 c-6 -15 -15 -27 -21 -27 -5 0 -10 -7 -10
-15 0 -19 26 -19 77 -1 36 13 42 12 56 -2 13 -12 19 -13 31 -3 13 11 20 9 42
-8 43 -34 57 -28 49 19 -7 41 8 58 18 20 3 -11 12 -20 21 -20 14 0 27 -34 38
-95 4 -22 26 -30 47 -16 11 7 11 13 0 32 -6 13 -18 30 -26 37 -7 7 -13 22 -13
33 0 10 -9 24 -20 31 -29 18 -28 82 2 102 12 9 31 16 41 16 18 0 21 5 31 53 8
35 -3 34 -42 -3 -51 -48 -57 -43 -70 55 -8 71 -32 87 -51 34 -19 -55 -22 -25
-5 52 9 41 18 84 20 96 10 56 78 50 114 -9 37 -61 20 -108 -39 -108 -20 0 -21
-4 -15 -57 8 -71 15 -80 40 -52 17 19 18 21 1 30 -27 16 -20 37 17 53 58 24
61 101 5 169 -21 25 -39 37 -62 39 l-32 3 -6 80 c-3 44 -2 88 2 97 5 9 23 19
41 23 68 14 70 15 63 45 -3 16 -2 31 4 35 18 11 12 34 -23 89 -29 46 -34 61
-31 106 3 58 29 103 62 108 27 4 88 -29 112 -59 23 -30 23 -151 0 -187 -13
-21 -12 -24 4 -33 14 -8 17 -18 12 -40 -6 -26 -4 -29 20 -29 26 0 26 -1 19
-48 -3 -26 -10 -55 -15 -64 -5 -9 -9 -29 -9 -45 0 -42 -23 -99 -47 -120 -18
-15 -25 -39 -37 -133 -14 -104 -24 -157 -45 -230 -6 -22 -11 -25 -44 -22 -43
4 -51 -15 -9 -24 15 -3 36 -9 47 -14 19 -7 18 -9 -7 -19 -31 -12 -40 -47 -10
-38 9 2 23 6 31 8 9 3 17 -8 23 -28 6 -23 13 -31 23 -27 18 7 19 26 3 42 -7 7
-13 30 -13 52 l-1 40 58 0 c46 0 59 4 68 19 19 37 13 51 -25 51 -52 0 -56 24
-11 64 42 39 46 62 11 78 -43 19 -27 108 19 108 14 0 28 -4 31 -10 12 -19 41
-10 58 20 24 40 15 50 -42 50 -55 0 -92 20 -74 41 11 14 22 58 45 183 9 49 16
61 42 77 17 10 39 19 50 19 14 0 17 6 13 26 -3 19 2 29 22 42 33 21 40 32 34
49 -3 8 -13 11 -24 8 -30 -10 -38 2 -27 38 6 17 14 38 17 46 7 14 170 66 179
56 3 -2 -6 -15 -19 -28 -17 -15 -24 -32 -24 -52 2 -27 6 -30 41 -35 35 -5 38
-8 39 -35 0 -24 5 -30 31 -35 17 -4 36 -10 42 -14 15 -9 16 -96 1 -96 -16 0
-3 -75 21 -119 10 -20 24 -53 30 -74 14 -44 30 -40 30 9 0 40 19 74 71 124 23
23 41 55 53 95 10 33 27 78 36 100 10 22 21 51 24 65 6 22 5 23 -6 8 -7 -9
-21 -30 -30 -47 -16 -29 -58 -45 -58 -22 0 49 15 74 55 92 42 19 72 45 63 54
-3 3 -36 -8 -73 -25 -38 -17 -73 -29 -79 -27 -6 2 27 22 74 44 l86 40 13 64
c7 35 15 128 18 206 l6 141 -73 4 c-39 1 -75 1 -80 -2 -16 -11 -29 -48 -23
-68 7 -28 -13 -52 -42 -52 -27 0 -26 4 -60 -190 -14 -79 -29 -148 -34 -153 -5
-5 -16 -7 -25 -4 -11 4 -16 24 -18 74 -3 67 -4 68 -33 73 -25 5 -30 10 -27 30
12 111 13 293 2 320 -14 35 -56 50 -138 50 -88 0 -88 1 -96 -157 -5 -88 -12
-140 -19 -145 -17 -11 -121 -10 -151 2 -20 7 -26 17 -26 38 0 15 5 33 11 39
13 13 -3 47 -68 146 -42 63 -47 67 -82 67 -56 0 -76 27 -76 105 -1 57 -4 66
-35 103 -38 43 -53 45 -119 13 -41 -19 -48 -33 -26 -55 22 -22 58 -20 80 4 10
11 23 20 30 20 14 0 52 -40 39 -41 -5 -1 -20 -2 -34 -2 -20 -2 -26 -8 -28 -31
-4 -33 13 -48 45 -39 30 7 29 -11 -1 -31 -14 -8 -27 -25 -31 -36 -5 -15 -15
-20 -40 -20 -71 0 -135 -20 -152 -48 -9 -15 -36 -57 -59 -94 -48 -74 -54 -98
-25 -98 43 0 51 -10 51 -64 0 -77 -8 -84 -126 -92 -74 -5 -103 -3 -109 5 -10
17 -2 22 44 28 22 3 42 12 45 19 3 8 -18 37 -51 70 l-56 56 -125 -3 c-109 -4
-126 -2 -136 13 -17 28 2 37 109 49 55 6 105 15 112 20 9 8 8 20 -3 51 -19 54
-18 57 11 64 14 3 25 10 25 16 0 5 -23 43 -51 84 l-50 75 -187 -3 -187 -3 -77
-49 c-43 -27 -78 -54 -78 -59 0 -5 9 -11 20 -14 18 -5 20 -14 20 -103 0 -109
0 -110 -82 -110 -33 0 -38 3 -38 23 0 12 -3 32 -6 45 -6 20 -3 22 30 22 20 0
36 5 36 11 0 30 -108 208 -148 245 -49 45 -49 58 -1 68 25 5 30 10 27 28 -2
19 -13 26 -55 36 -66 16 -117 5 -121 -25 -2 -14 4 -26 17 -33 26 -14 29 -45 4
-35 -10 3 -31 9 -48 12 -39 8 -84 30 -112 55 -13 12 -30 18 -42 15 -18 -4 -18
-3 -4 32 12 28 14 59 9 146 -6 101 -5 113 14 144 l21 33 -20 22 c-27 29 -26
32 6 31 22 0 28 6 33 30 4 17 12 40 19 53 7 13 10 30 7 38 -9 25 11 15 41 -19
17 -19 37 -60 47 -95 16 -59 28 -74 41 -52 3 5 -6 55 -21 110 -25 94 -26 101
-10 125 18 27 40 33 52 13 4 -6 -2 -19 -14 -29 -12 -9 -22 -24 -22 -33 0 -21
64 -22 104 -1 36 19 33 20 40 -10 4 -14 10 -25 16 -25 18 0 20 39 4 79 -9 24
-14 52 -10 67 6 22 4 25 -16 22 -20 -3 -24 -10 -28 -58 -6 -64 -30 -77 -41
-22 -4 18 -15 42 -25 53 -15 17 -26 19 -73 13 -31 -3 -58 -8 -60 -10 -2 -2 4
-22 14 -44 13 -29 15 -44 8 -51 -8 -8 -16 -4 -28 15 -22 33 -42 33 -77 -1 -30
-28 -36 -68 -18 -104 11 -20 -3 -28 -15 -9 -11 18 -23 2 -18 -24 3 -16 -5 -38
-26 -66 -17 -24 -31 -48 -31 -54 0 -5 17 -27 37 -48 42 -43 37 -62 -8 -29 -29
22 -59 23 -59 1 0 -5 22 -26 49 -45 27 -20 52 -42 55 -51 13 -35 4 -82 -28
-139 -26 -47 -56 -78 -141 -148 -59 -48 -135 -113 -169 -145 -34 -31 -83 -68
-109 -82 -54 -28 -55 -43 -6 -50 33 -5 34 -6 30 -50 -5 -68 -15 -80 -66 -80
-24 0 -47 -5 -51 -12 -4 -7 -7 -77 -7 -157 1 -140 1 -144 -13 -101 -62 195
-69 519 -18 770 141 681 701 1211 1400 1325 129 21 456 13 584 -13z m-842
-1870 c2 -19 11 -36 22 -42 11 -6 25 -20 31 -32 10 -19 9 -20 -15 -16 -22 4
-27 1 -32 -21 -9 -46 -36 -135 -48 -160 -14 -31 -42 -49 -55 -36 -14 15 6 120
34 176 17 33 25 65 25 102 0 30 3 57 7 61 14 13 28 -1 31 -32z m1135 -124 c37
-77 38 -86 23 -123 -12 -29 -12 -35 -1 -45 8 -7 25 -31 38 -54 21 -37 22 -46
10 -61 -7 -11 -13 -26 -13 -35 0 -12 -61 -47 -65 -37 0 1 -7 18 -14 37 -8 19
-18 71 -23 115 -6 53 -20 103 -41 148 l-32 68 25 20 c43 33 65 25 93 -33z"/>
<path d="M2125 3058 c-32 -28 -44 -79 -45 -191 0 -85 -11 -117 -39 -117 -34 0
-42 24 -39 117 l3 88 -41 3 c-60 4 -96 -30 -124 -116 -29 -87 -40 -99 -69 -75
l-23 19 40 85 c32 71 45 88 75 102 19 9 40 17 46 17 6 0 11 5 11 10 0 18 -29
23 -62 9 -28 -11 -32 -11 -49 9 -20 26 -41 28 -59 7 -7 -8 -30 -18 -52 -21
-50 -9 -57 -21 -16 -32 30 -8 34 -12 40 -57 9 -63 -3 -119 -25 -123 -15 -3
-17 6 -17 67 0 61 -3 70 -20 76 -13 4 -31 -2 -51 -16 -26 -19 -38 -21 -90 -15
-57 7 -61 6 -90 -23 -38 -39 -49 -39 -49 -1 0 45 -22 37 -65 -25 -42 -62 -88
-105 -113 -105 -9 0 0 14 26 36 66 56 50 87 -31 65 -50 -15 -88 -41 -69 -48 6
-3 12 -16 12 -29 0 -64 38 -80 99 -43 33 20 36 20 63 4 28 -16 29 -16 57 16
28 30 30 31 52 15 40 -28 84 -21 116 19 34 43 43 44 43 5 0 -20 5 -30 15 -30
16 0 23 23 27 85 2 28 8 40 18 40 11 0 17 -15 20 -54 7 -65 20 -76 102 -84 35
-3 80 -13 100 -21 34 -15 41 -15 77 0 55 22 105 1 127 -53 27 -63 63 -70 117
-23 19 17 37 30 41 30 3 0 3 -40 -1 -89 -5 -81 -4 -90 16 -110 11 -11 31 -21
44 -21 32 0 43 -10 61 -53 37 -91 174 -84 280 13 62 57 96 113 171 286 36 82
72 155 79 162 10 11 20 5 51 -29 100 -111 125 -268 64 -408 -42 -98 -122 -131
-188 -76 -39 34 -48 61 -25 86 22 24 37 25 29 0 -9 -28 20 -47 50 -33 27 13
35 58 13 80 -19 19 -73 14 -102 -9 -75 -59 14 -199 128 -199 47 0 99 46 121
108 25 71 30 213 11 296 -29 122 -97 230 -141 224 -12 -2 -28 -20 -42 -48 -12
-25 -56 -115 -97 -200 -80 -166 -128 -230 -200 -264 -67 -32 -146 -3 -146 53
0 22 9 30 58 51 101 44 172 128 172 204 0 27 -5 35 -23 40 -80 20 -201 -79
-261 -212 -33 -74 -86 -51 -86 37 0 68 25 112 104 184 85 77 118 134 119 208
1 59 -8 69 -50 57 -40 -10 -63 -43 -118 -166 -32 -70 -49 -97 -62 -97 -13 0
-19 9 -21 35 -5 63 -11 78 -38 84 -29 8 -29 13 2 100 30 83 -5 132 -61 84z
m465 -391 c0 -22 -66 -93 -118 -126 -65 -41 -76 -40 -69 6 7 38 43 83 92 114
35 22 95 26 95 6z"/>
<path d="M2879 1057 c-21 -14 -41 -41 -53 -70 -19 -44 -19 -51 -5 -75 14 -26
19 -27 95 -27 l79 0 3 -28 c4 -33 -25 -74 -42 -57 -6 6 -4 16 7 28 22 24 21
29 -3 42 -16 8 -26 5 -55 -21 -59 -52 -42 -125 30 -131 78 -5 90 0 114 47 12
24 21 52 19 62 -4 24 26 24 30 0 7 -33 -6 -61 -47 -103 -38 -40 -47 -68 -42
-132 2 -26 18 -2 24 36 4 20 13 46 22 57 13 18 14 16 9 -30 -4 -42 -3 -47 7
-30 7 11 24 31 38 45 l26 25 -28 3 -28 3 26 30 c29 35 34 101 10 135 -8 12
-13 34 -12 49 2 34 -18 44 -27 13 -6 -22 -6 -22 -26 11 -12 18 -30 35 -41 38
-19 5 -19 7 -3 24 22 25 12 47 -31 64 -46 20 -56 19 -96 -8z"/>
<path d="M917 816 c-64 -63 -59 -168 8 -200 54 -26 83 -20 126 23 33 32 39 45
39 80 0 116 -99 171 -173 97z m94 -6 c23 -13 49 -61 49 -93 0 -58 -89 -99
-132 -60 -36 33 -17 125 32 150 30 15 27 15 51 3z"/>
<path d="M1788 777 c-33 -27 -35 -43 -9 -52 38 -12 33 -161 -9 -260 -14 -33
-17 -52 -10 -65 15 -28 38 -32 61 -9 16 16 23 18 35 8 11 -9 14 -8 14 8 0 10
-5 24 -12 31 -6 6 -11 30 -10 52 1 26 -3 43 -11 46 -11 4 -12 18 -4 65 7 48 5
71 -8 111 -18 55 -11 76 12 41 17 -26 33 -30 33 -10 0 12 -40 57 -51 57 -2 -1
-16 -11 -31 -23z"/>
<path d="M1879 686 c-9 -25 -12 -50 -8 -58 5 -7 1 -20 -8 -30 -13 -15 -14 -23
-5 -44 7 -14 9 -42 6 -62 -5 -34 -3 -38 26 -50 24 -11 34 -11 45 -2 15 13 19
8 16 -22 -1 -10 4 -18 13 -18 17 0 51 93 42 117 -8 19 15 133 26 133 4 0 8
-11 8 -25 0 -14 5 -25 10 -25 13 0 13 35 -1 83 -21 76 -57 37 -95 -104 -14
-52 -29 -98 -34 -103 -23 -23 -21 10 4 91 29 96 32 133 14 151 -23 23 -43 13
-59 -32z"/>
<path d="M1584 676 c-3 -7 4 -31 15 -52 22 -43 19 -87 -15 -219 -8 -33 -18
-71 -21 -84 -8 -33 19 -51 80 -51 l49 0 -6 45 c-4 26 -3 53 4 65 17 32 51 173
45 188 -3 7 0 23 6 34 17 31 3 65 -32 77 -45 16 -118 14 -125 -3z"/>
<path d="M2787 644 c-3 -3 -3 -30 0 -59 4 -35 0 -70 -11 -107 -10 -29 -16 -67
-14 -83 2 -25 0 -30 -17 -28 -14 2 -25 -7 -37 -32 l-17 -35 69 47 c63 42 70
49 70 79 0 19 5 34 10 34 6 0 10 -9 10 -20 0 -11 3 -20 6 -20 3 0 30 21 60 46
68 58 92 126 60 169 -19 27 -42 7 -50 -46 -8 -47 -26 -43 -26 6 0 24 -6 38
-19 45 -21 11 -84 14 -94 4z"/>
<path d="M1912 243 c2 -17 12 -32 26 -38 26 -11 31 -59 7 -69 -11 -4 -14 -13
-9 -31 3 -14 2 -25 -4 -25 -12 0 -23 64 -11 68 5 2 9 11 9 19 0 12 -8 14 -39
9 -22 -3 -50 -1 -63 5 -33 14 -74 -3 -96 -40 -12 -21 -23 -29 -37 -26 -85 17
-95 16 -95 -5 0 -22 -12 -25 -41 -10 -26 14 -24 30 4 30 20 1 20 2 5 11 -10 5
-18 21 -18 34 0 14 -8 29 -19 35 -27 14 -31 13 -31 -8 0 -11 -11 -24 -25 -30
-28 -13 -32 -34 -10 -52 12 -10 16 -9 21 4 6 15 34 23 34 9 0 -4 -10 -17 -21
-29 l-22 -23 24 -5 c65 -15 175 -23 187 -13 9 7 16 7 24 -1 15 -15 92 -16 83
-2 -3 5 -15 10 -26 10 -29 0 -25 45 6 66 34 22 59 12 51 -22 -9 -34 1 -64 22
-64 14 0 17 8 14 45 -3 28 0 45 7 45 6 0 11 -13 11 -28 0 -51 19 -64 78 -56
50 6 63 16 42 29 -19 12 -10 26 25 41 26 10 35 20 35 38 0 29 -29 56 -61 56
-13 0 -36 11 -51 25 -34 32 -40 31 -36 -2z"/>
</g>
</svg>
