<?xml version="1.0" standalone="no"?>
<!DOCTYPE svg PUBLIC "-//W3C//DTD SVG 20010904//EN"
 "http://www.w3.org/TR/2001/REC-SVG-20010904/DTD/svg10.dtd">
<svg version="1.0" xmlns="http://www.w3.org/2000/svg"
 width="1194.000000pt" height="1384.000000pt" viewBox="0 0 1194.000000 1384.000000"
 preserveAspectRatio="xMidYMid meet">

<g transform="translate(0.000000,1384.000000) scale(0.100000,-0.100000)"
fill="#000000" stroke="none">
<path d="M5650 13830 c-812 -55 -1552 -242 -2264 -571 -975 -451 -1827 -1170
-2406 -2034 l-70 -105 540 0 541 0 -73 -72 c-50 -50 -86 -97 -113 -148 -30
-58 -34 -71 -18 -60 11 8 60 45 109 83 107 81 280 169 387 196 162 42 361 49
487 19 103 -25 193 -95 231 -181 20 -45 24 -68 24 -167 -1 -206 -14 -239 -401
-955 -143 -264 -268 -499 -277 -523 -36 -91 -14 -167 60 -203 86 -42 269 -18
413 55 l65 33 7 77 c33 355 281 677 676 875 333 167 726 185 1002 46 230 -116
362 -313 376 -563 8 -122 -19 -261 -70 -368 l-35 -74 62 0 c34 0 87 7 117 15
68 18 70 18 45 -1 -40 -31 -139 -76 -206 -93 -66 -17 -70 -20 -117 -82 -182
-239 -482 -424 -795 -490 -129 -28 -354 -30 -463 -6 -242 54 -429 189 -522
376 -23 45 -44 97 -48 116 -7 39 -15 43 -35 19 -7 -8 -67 -51 -133 -96 -249
-166 -549 -285 -856 -339 -114 -21 -379 -18 -459 5 -132 36 -223 103 -264 195
-27 59 -28 181 -3 265 23 77 16 63 428 843 248 469 348 667 344 681 -22 69
-231 44 -297 -35 -13 -16 -246 -455 -518 -976 l-495 -947 -296 0 -297 0 -6
-52 c-29 -255 -33 -764 -7 -1028 42 -428 123 -824 244 -1192 54 -162 131 -366
145 -380 3 -4 101 174 217 395 l210 402 -203 3 c-112 1 -203 4 -203 7 0 2 27
43 61 90 l61 85 190 2 191 3 285 548 286 547 547 0 547 0 -240 -457 c-132
-252 -262 -500 -289 -550 l-49 -93 158 0 157 0 289 550 288 550 582 0 c570 0
580 0 551 -19 -17 -10 -49 -39 -70 -64 -26 -30 -259 -464 -680 -1266 l-640
-1221 -542 0 c-299 0 -543 3 -543 6 0 5 473 911 617 1182 l55 102 -159 0 -158
0 -325 -621 c-179 -342 -342 -653 -363 -690 -62 -113 -194 -241 -322 -314 -27
-16 -51 -30 -53 -31 -6 -4 116 -182 208 -304 390 -517 849 -952 1398 -1325
867 -587 1879 -936 2947 -1015 298 -22 840 -11 1175 24 69 7 135 10 146 5 14
-5 32 -32 52 -81 132 -317 118 -630 -50 -1148 -138 -426 -331 -834 -549 -1164
-44 -65 -79 -120 -79 -122 0 -11 303 172 500 301 291 192 829 596 1225 920
1378 1127 2461 2353 3151 3563 111 195 297 562 378 744 56 129 176 423 176
434 0 4 -20 -20 -43 -52 -103 -139 -230 -252 -392 -349 -248 -149 -550 -222
-806 -196 -144 15 -218 35 -334 91 -160 78 -254 168 -334 319 l-36 68 -95 -68
c-282 -203 -611 -316 -1025 -350 -321 -27 -632 13 -759 97 l-38 26 49 51 c47
49 112 128 127 154 4 7 -30 -11 -76 -39 -168 -104 -381 -192 -578 -237 -182
-42 -315 -55 -560 -55 -204 0 -248 3 -337 22 -107 23 -176 49 -224 83 l-29 20
60 67 c33 37 74 87 92 112 l33 45 -30 -20 c-193 -125 -434 -230 -645 -279
-206 -47 -500 -64 -600 -33 -104 31 -201 122 -216 202 l-6 33 -65 -49 c-154
-117 -330 -176 -588 -199 -220 -19 -353 16 -459 123 -127 127 -173 321 -131
558 40 231 148 424 338 606 250 238 603 395 973 434 222 22 380 -5 467 -81
l46 -40 63 34 c88 48 181 74 315 88 181 19 406 -10 563 -72 30 -12 57 -23 59
-25 1 -2 -26 -31 -62 -65 -36 -34 -81 -85 -100 -113 -52 -79 -425 -797 -448
-864 -53 -150 19 -229 187 -204 130 19 259 78 405 185 l76 55 359 687 c198
378 367 707 376 733 25 66 23 114 -5 147 -20 23 -34 28 -83 32 -112 8 -287
-57 -382 -143 l-51 -46 -7 48 c-9 62 2 81 101 166 157 136 335 235 550 306
204 68 304 85 505 85 168 1 177 0 230 -25 68 -32 106 -69 136 -134 30 -64 33
-189 6 -285 -12 -41 -161 -338 -409 -812 -215 -411 -399 -771 -408 -799 -26
-78 -17 -145 25 -182 33 -29 35 -30 114 -24 84 6 179 34 281 82 62 30 238 145
292 192 23 20 130 216 379 692 190 366 352 683 360 704 56 158 -47 218 -256
147 -104 -34 -176 -74 -231 -127 l-36 -34 -7 50 c-8 61 4 81 103 167 198 171
466 299 760 361 107 23 152 27 296 27 l170 1 67 -33 c74 -36 121 -89 140 -157
17 -61 12 -191 -10 -262 -11 -34 -198 -403 -415 -820 -243 -464 -401 -778
-408 -809 -14 -62 -6 -115 25 -151 66 -77 317 -15 544 133 l72 48 0 80 c1 489
457 963 1051 1092 129 28 393 26 514 -4 169 -43 326 -137 423 -255 89 -109
151 -271 153 -401 l1 -61 19 60 c31 100 98 400 130 581 121 704 115 1454 -17
2121 -13 68 -24 125 -24 128 0 3 -239 5 -530 5 l-530 0 -44 -67 c-93 -145
-156 -302 -156 -389 0 -129 89 -189 275 -187 275 5 504 145 645 395 17 32 36
60 40 63 9 6 299 -41 307 -49 11 -10 -66 -106 -152 -191 -178 -174 -413 -287
-710 -341 -123 -22 -405 -30 -535 -15 -214 25 -378 84 -502 179 l-66 51 -139
-137 c-106 -106 -167 -158 -262 -221 -269 -179 -559 -284 -886 -321 -135 -15
-349 -12 -423 5 -134 32 -234 100 -287 196 -26 48 -29 64 -29 134 0 55 6 94
20 126 10 25 234 460 497 967 326 629 477 931 477 952 0 25 -6 33 -35 47 -30
15 -44 15 -90 6 -71 -15 -121 -40 -158 -77 -17 -18 -230 -415 -502 -936 l-471
-905 -517 -3 c-284 -1 -517 0 -517 4 0 3 197 384 439 847 532 1021 511 980
511 1017 0 43 -37 65 -96 56 -64 -8 -136 -42 -171 -79 -17 -18 -246 -440 -509
-939 l-478 -908 -533 0 c-293 0 -533 1 -533 3 0 1 196 378 436 837 524 1002
554 1063 554 1106 0 130 -208 52 -428 -161 -82 -78 -162 -172 -192 -224 -8
-14 -15 -10 -52 26 l-43 43 19 34 c42 78 188 258 296 366 286 285 615 444 992
481 367 35 559 -71 561 -307 l0 -73 39 32 c217 177 427 282 666 333 117 25
292 30 375 10 179 -42 273 -138 284 -292 l6 -74 79 76 c141 135 314 231 498
277 66 16 117 21 225 22 131 0 144 -2 196 -26 146 -69 219 -201 219 -399 0
-90 -18 -186 -53 -281 -13 -36 -218 -435 -456 -887 -458 -870 -456 -867 -418
-925 32 -48 64 -62 147 -61 118 0 262 53 404 148 88 59 193 150 226 196 20 29
20 30 3 87 -23 78 -23 235 1 328 23 91 101 256 166 349 60 86 198 224 285 283
81 55 221 124 326 161 293 104 772 141 984 77 25 -7 45 -9 45 -4 0 18 -110
264 -191 429 -616 1239 -1701 2222 -3054 2767 -545 220 -1111 357 -1725 418
-183 18 -749 27 -930 15z m2480 -8865 c0 -3 -25 -39 -56 -80 -42 -56 -62 -75
-80 -75 -22 0 -21 3 24 80 43 73 50 80 80 80 17 0 32 -2 32 -5z m-400 -85 c0
-25 -4 -30 -24 -30 -34 0 -75 -39 -78 -75 -3 -30 -2 -30 50 -33 50 -3 52 -4
52 -33 0 -29 -1 -29 -55 -29 l-55 0 0 -220 0 -220 -30 0 -30 0 0 220 0 220
-30 0 c-27 0 -30 3 -30 30 0 27 3 30 30 30 27 0 30 3 30 30 0 83 54 135 143
139 24 1 27 -3 27 -29z m-2290 -2 c24 -13 58 -40 74 -61 27 -33 31 -48 34
-111 3 -59 0 -81 -17 -114 -22 -43 -58 -73 -104 -88 l-27 -9 75 -123 c41 -67
75 -125 75 -127 0 -3 -17 -5 -37 -5 l-38 0 -96 158 -97 157 58 6 c112 11 160
73 136 175 -9 42 -55 84 -102 95 -22 4 -69 9 -106 9 l-68 0 0 -300 0 -300 -35
0 -35 0 0 330 0 330 133 0 c118 0 138 -3 177 -22z m1260 -308 l0 -330 -30 0
c-28 0 -30 3 -30 35 l0 36 -37 -29 c-57 -44 -94 -55 -172 -50 -90 5 -153 42
-197 116 -104 172 0 388 191 400 75 5 126 -10 178 -50 l37 -29 0 116 0 115 30
0 30 0 0 -330z m170 280 l0 -50 -35 0 -35 0 0 50 0 50 35 0 35 0 0 -50z m2070
0 l0 -50 -35 0 -35 0 0 50 0 50 35 0 35 0 0 -50z m-6161 -3 c76 -27 127 -144
102 -235 -21 -76 -87 -133 -169 -144 -20 -3 -16 -12 58 -116 68 -95 77 -113
59 -110 -16 2 -50 41 -110 123 -48 66 -88 123 -88 128 -1 4 20 7 47 7 133 1
216 117 164 231 -38 85 -93 109 -248 109 l-74 0 0 -300 c0 -260 -2 -300 -15
-300 -13 0 -15 41 -15 310 l0 310 128 -1 c71 0 142 -5 161 -12z m1111 -27 c0
-29 -4 -40 -15 -40 -11 0 -15 11 -15 40 0 29 4 40 15 40 11 0 15 -11 15 -40z
m530 -45 l0 -85 55 0 c42 0 55 -3 55 -15 0 -12 -13 -15 -55 -15 l-55 0 0 -210
c0 -180 -2 -210 -15 -210 -13 0 -15 30 -15 210 l0 210 -50 0 c-38 0 -50 4 -50
15 0 11 12 15 50 15 l50 0 0 85 c0 69 3 85 15 85 12 0 15 -16 15 -85z m2885
-39 c198 -83 207 -384 14 -479 -61 -31 -157 -37 -213 -13 -49 20 -112 81 -135
130 -26 53 -29 168 -6 224 29 68 107 134 180 153 38 10 118 2 160 -15z m819 0
c196 -82 207 -380 17 -478 -63 -33 -157 -38 -219 -13 -42 18 -107 77 -128 117
-79 151 6 348 169 389 39 10 120 2 161 -15z m-2125 -23 l51 -32 0 29 c0 28 3
30 35 30 l35 0 0 -250 0 -250 -35 0 c-32 0 -35 2 -35 30 l0 29 -51 -32 c-42
-26 -64 -32 -121 -35 -90 -5 -143 15 -198 74 -55 60 -70 99 -70 181 1 113 49
193 145 240 41 20 62 23 121 21 60 -3 80 -8 123 -35z m2658 22 c98 -41 113
-81 113 -312 l0 -183 -29 0 -29 0 -4 178 c-3 157 -5 181 -24 212 -35 61 -142
78 -203 33 -53 -39 -61 -73 -61 -255 l0 -168 -35 0 -35 0 0 250 0 250 35 0
c31 0 35 -3 35 -27 l0 -26 24 22 c44 41 146 54 213 26z m751 -18 c39 -25 102
-99 102 -119 0 -4 -16 -8 -35 -8 -27 0 -39 7 -57 30 -54 74 -179 92 -252 36
-94 -71 -107 -219 -27 -310 27 -30 87 -56 132 -56 57 0 123 34 149 76 18 28
28 34 56 34 43 0 43 -14 4 -68 -49 -68 -101 -96 -186 -100 -88 -5 -128 7 -184
55 -119 102 -121 300 -5 402 59 52 90 62 181 59 69 -3 87 -7 122 -31z m513 22
c19 -6 51 -25 72 -41 l37 -29 0 36 c0 32 2 35 30 35 l30 0 0 -250 0 -250 -30
0 c-27 0 -30 3 -30 30 0 30 -13 40 -26 19 -3 -6 -30 -22 -58 -35 -92 -43 -203
-29 -276 34 -65 55 -85 102 -85 202 0 75 3 91 28 132 61 105 193 155 308 117z
m-3051 -249 l0 -250 -35 0 -35 0 0 250 0 250 35 0 35 0 0 -250z m2070 0 l0
-250 -35 0 -35 0 0 250 0 250 35 0 35 0 0 -250z m-5709 200 c78 -22 158 -121
159 -197 l0 -33 -210 0 -210 0 0 -22 c0 -13 9 -41 19 -63 64 -139 244 -158
331 -35 20 28 50 41 50 22 0 -21 -55 -80 -98 -104 -88 -52 -195 -34 -268 44
-49 52 -64 90 -64 163 0 162 137 268 291 225z m960 -6 c27 -14 59 -65 59 -94
0 -21 -30 -9 -36 15 -8 34 -50 65 -86 65 -41 0 -88 -48 -88 -89 0 -40 28 -67
82 -81 127 -34 178 -112 133 -201 -33 -62 -136 -90 -205 -54 -34 18 -70 73
-70 109 0 38 27 33 34 -7 17 -92 138 -120 200 -46 55 65 23 127 -82 159 -96
29 -122 55 -122 122 1 91 98 145 181 102z m713 -18 c24 -14 53 -38 65 -53 l20
-28 1 53 c0 39 4 52 15 52 13 0 15 -32 15 -225 0 -193 -2 -225 -15 -225 -11 0
-15 12 -15 47 l0 47 -37 -36 c-51 -49 -99 -68 -177 -68 -82 0 -154 36 -200 98
-27 39 -31 53 -34 122 -4 84 8 121 57 173 51 55 112 78 198 73 44 -3 75 -11
107 -30z m-1389 -178 c44 -109 83 -198 86 -198 3 0 41 88 85 196 72 178 94
218 110 201 4 -3 -34 -104 -84 -224 -70 -170 -94 -219 -109 -221 -17 -3 -32
28 -107 210 -49 117 -91 219 -94 227 -3 9 1 12 14 9 14 -2 39 -52 99 -200z
m375 -23 c0 -193 -2 -225 -15 -225 -13 0 -15 32 -15 225 0 193 2 225 15 225
13 0 15 -32 15 -225z"/>
<path d="M6375 4672 c-79 -37 -122 -116 -112 -204 8 -61 30 -101 80 -142 35
-28 46 -31 106 -31 58 0 73 4 103 27 58 44 83 93 83 163 0 75 -26 129 -83 169
-53 37 -121 44 -177 18z"/>
<path d="M7125 4676 c-79 -34 -128 -143 -105 -234 29 -117 148 -182 253 -139
45 19 105 89 113 132 18 100 -21 197 -96 235 -45 23 -120 26 -165 6z"/>
<path d="M7935 4671 c-85 -51 -124 -152 -94 -242 37 -110 152 -167 252 -125
41 17 91 74 107 121 30 92 -11 205 -90 245 -51 26 -134 27 -175 1z"/>
<path d="M5795 4676 c-48 -21 -101 -87 -114 -143 -44 -184 169 -321 302 -195
43 41 67 95 67 151 0 63 -13 97 -53 140 -56 58 -134 77 -202 47z"/>
<path d="M9765 4674 c-103 -53 -144 -177 -94 -282 45 -92 165 -130 253 -78
143 83 130 299 -21 362 -43 18 -101 18 -138 -2z"/>
<path d="M3080 4648 c-49 -25 -96 -85 -106 -135 l-6 -33 190 0 c105 0 193 4
196 8 11 18 -19 84 -52 118 -65 67 -143 81 -222 42z"/>
<path d="M4705 4658 c-46 -16 -81 -45 -106 -84 -86 -140 11 -315 176 -316 99
-1 178 56 205 149 47 157 -117 307 -275 251z"/>
<path d="M11223 10109 c-107 -53 -305 -334 -392 -556 l-21 -53 130 0 129 0 81
121 c171 256 240 443 180 491 -29 23 -55 23 -107 -3z"/>
<path d="M4366 9939 c-388 -95 -698 -467 -684 -819 6 -154 71 -241 218 -292
118 -41 280 -22 390 45 72 44 190 171 190 205 0 5 -34 12 -75 14 -191 12 -290
139 -257 330 24 137 112 276 240 378 66 52 186 115 240 126 74 15 8 34 -113
33 -38 0 -105 -9 -149 -20z"/>
<path d="M5005 6906 c-222 -104 -542 -595 -641 -984 -34 -135 -29 -203 18
-218 55 -17 214 68 290 156 25 29 132 221 276 496 200 380 236 456 236 492 1
34 -4 48 -23 63 -32 26 -94 24 -156 -5z"/>
<path d="M11141 6860 c-194 -41 -378 -145 -519 -295 -137 -146 -229 -340 -239
-510 -13 -197 61 -311 235 -365 204 -63 442 23 562 202 l42 63 -79 7 c-113 11
-197 54 -240 126 -83 139 -39 339 113 519 81 94 264 211 362 229 30 6 32 8 16
17 -24 14 -198 18 -253 7z"/>
</g>
</svg>
