<?xml version="1.0" standalone="no"?>
<!DOCTYPE svg PUBLIC "-//W3C//DTD SVG 20010904//EN"
 "http://www.w3.org/TR/2001/REC-SVG-20010904/DTD/svg10.dtd">
<svg version="1.0" xmlns="http://www.w3.org/2000/svg"
 width="500.000000pt" height="513.000000pt" viewBox="0 0 500.000000 513.000000"
 preserveAspectRatio="xMidYMid meet">
<metadata>
Created by potrace 1.16, written by Peter Selinger 2001-2019
</metadata>
<g transform="translate(0.000000,513.000000) scale(0.100000,-0.100000)"
fill="#000000" stroke="none">
<path d="M2205 4880 c-118 -12 -159 -35 -289 -163 -33 -32 -76 -65 -98 -74
-39 -15 -54 -40 -18 -28 12 4 20 2 20 -5 0 -8 -10 -10 -26 -7 -63 12 -164 -53
-164 -107 0 -17 -8 -27 -29 -36 -52 -21 -57 -1 -10 40 24 21 41 41 38 44 -3 3
-20 -7 -36 -23 -17 -16 -55 -36 -86 -45 -31 -9 -59 -21 -62 -26 -3 -6 -13 -10
-22 -10 -8 0 -26 -9 -40 -20 -14 -11 -36 -20 -49 -20 -12 0 -26 -5 -30 -12
-10 -15 103 -4 150 16 23 10 37 11 44 4 11 -11 32 -3 32 13 0 5 -10 14 -22 20
-20 8 -19 9 7 3 16 -3 33 -11 37 -17 11 -18 52 7 94 57 21 25 44 46 51 46 30
0 25 -45 -6 -55 -10 -3 -27 -22 -37 -41 -20 -38 -48 -54 -94 -54 -18 0 -42
-11 -63 -30 -37 -32 -60 -39 -51 -15 5 11 -1 15 -26 15 -42 0 -78 -19 -59 -31
8 -4 24 -6 36 -2 33 8 28 -12 -9 -37 l-33 -22 35 7 c169 33 244 15 277 -64 18
-43 10 -51 -22 -21 -20 19 -25 20 -25 7 0 -9 6 -20 14 -24 7 -4 19 -19 26 -32
10 -19 10 -25 -1 -31 -10 -7 -9 -14 4 -34 21 -31 21 -36 3 -36 -7 0 -25 15
-39 33 -14 17 -52 60 -85 95 l-61 62 -75 0 c-75 0 -176 -17 -176 -31 0 -3 11
-14 25 -23 14 -9 25 -25 25 -35 0 -10 9 -30 21 -45 20 -26 20 -28 4 -46 -16
-18 -16 -20 -1 -26 20 -8 21 -32 2 -53 -24 -28 -96 -177 -96 -200 0 -32 16
-17 30 27 16 50 99 192 117 199 18 7 61 -12 102 -46 33 -27 33 -28 18 -57 -8
-16 -34 -47 -58 -68 l-42 -40 89 -83 c49 -45 94 -83 100 -83 6 0 17 -6 23 -14
7 -8 24 -17 39 -21 15 -3 45 -18 66 -32 41 -27 47 -27 160 -3 45 9 52 8 83
-16 18 -14 33 -32 33 -40 0 -20 -10 -18 -37 8 -27 25 -33 5 -6 -24 13 -15 14
-21 4 -31 -10 -9 -15 -8 -27 7 -17 25 -29 15 -15 -12 15 -28 14 -42 -3 -42 -8
0 -17 11 -20 25 -9 35 -24 23 -18 -15 4 -31 -14 -43 -24 -15 -4 9 -19 15 -39
15 -19 0 -46 5 -60 10 -21 8 -25 14 -20 31 6 18 4 20 -14 14 -31 -9 -163 30
-266 79 -98 47 -184 114 -208 161 l-16 30 0 -27 c-1 -15 4 -30 10 -33 6 -4 8
-13 5 -21 -3 -9 1 -14 13 -14 10 0 24 -7 32 -16 10 -13 10 -17 -1 -24 -9 -5
-20 -5 -27 2 -10 8 -19 4 -38 -16 -13 -14 -30 -26 -36 -26 -7 0 -10 -2 -7 -5
2 -3 31 4 64 15 32 11 67 20 77 20 26 0 20 -19 -10 -32 -16 -7 -41 -21 -57
-32 -15 -10 -39 -20 -52 -22 -46 -5 -207 -151 -250 -228 -13 -23 -31 -54 -40
-71 -9 -16 -54 -79 -99 -140 -95 -127 -161 -228 -199 -302 -14 -29 -30 -53
-35 -53 -4 0 -17 8 -29 18 -12 10 -40 25 -63 32 -24 8 -68 38 -101 69 -32 29
-62 51 -66 47 -11 -12 108 -112 168 -142 30 -14 63 -33 73 -42 10 -9 21 -12
26 -6 4 5 48 72 97 149 49 77 125 191 169 253 44 63 103 148 132 190 54 80
108 129 229 206 87 56 109 60 136 25 28 -37 14 -82 -28 -89 -23 -4 -29 -11
-30 -30 0 -14 -3 -32 -6 -40 -4 -8 -9 -35 -13 -59 -3 -24 -14 -72 -24 -105
-10 -34 -24 -86 -30 -116 -17 -80 -31 -131 -46 -165 -7 -17 -16 -46 -20 -65
-4 -19 -18 -55 -32 -79 -21 -36 -23 -47 -14 -68 6 -13 15 -22 20 -18 13 8 59
-15 65 -32 14 -34 -14 -39 -104 -17 -24 6 -23 5 5 -15 17 -11 45 -21 63 -21
27 0 32 -3 32 -25 0 -21 -5 -25 -28 -25 -42 0 -163 48 -179 71 -12 16 -18 17
-29 8 -11 -9 -23 -8 -54 5 -22 9 -50 16 -63 17 -20 0 -55 16 -136 62 -22 13
-31 14 -31 5 1 -22 91 -71 154 -84 63 -13 115 -29 224 -70 34 -13 75 -24 91
-24 33 0 54 -21 49 -47 -4 -19 -25 -21 -88 -9 -33 7 -34 7 -16 -8 11 -9 27
-16 36 -16 23 0 65 -46 50 -55 -6 -4 -30 -4 -53 0 -32 5 -39 4 -31 -5 6 -6 27
-13 46 -16 86 -10 153 -31 156 -48 2 -9 -8 -40 -22 -68 -30 -59 -32 -78 -11
-78 8 0 15 -5 15 -10 0 -6 -8 -10 -17 -8 -13 2 -19 -5 -21 -22 -2 -14 -10 -40
-19 -58 -18 -40 -63 -200 -62 -222 1 -23 25 36 55 135 31 102 40 117 57 94 7
-8 20 -18 30 -22 9 -4 20 -15 23 -24 3 -10 10 -26 15 -35 13 -25 -15 -72 -89
-147 -34 -35 -62 -68 -62 -73 0 -5 18 1 40 13 72 41 62 -1 -12 -47 -40 -26
-64 -29 -88 -14 -13 8 -12 14 4 47 27 52 30 59 24 53 -26 -24 -118 -146 -118
-156 0 -23 37 -52 74 -59 23 -5 53 -1 82 9 27 9 80 16 124 16 42 0 80 4 85 9
6 6 32 13 59 18 27 5 51 13 53 19 2 6 -25 19 -60 28 -77 21 -137 66 -137 103
0 48 115 214 138 200 5 -4 13 -27 17 -53 3 -25 17 -74 31 -110 28 -75 32 -181
9 -236 -12 -30 -12 -38 0 -54 11 -16 25 -19 80 -17 39 1 81 -3 100 -11 100
-42 269 -24 252 28 -2 6 -40 31 -86 56 -167 92 -176 110 -166 345 12 281 23
325 83 325 27 0 123 29 137 41 5 5 15 9 23 9 8 0 27 11 44 25 19 16 42 25 64
25 74 0 124 20 151 61 25 38 25 42 14 102 -7 34 -15 78 -18 97 -3 19 -16 46
-28 60 -28 31 -125 186 -125 200 0 6 -10 21 -22 34 -63 63 -138 160 -148 191
-10 31 -15 34 -37 28 -22 -5 -25 -3 -20 11 4 9 2 16 -3 16 -6 0 -10 5 -10 12
0 9 3 9 12 0 7 -7 22 -12 34 -12 17 0 25 9 35 37 12 37 12 37 -35 77 -50 45
-61 72 -23 60 12 -4 39 -6 61 -6 33 2 48 11 100 62 l61 61 -48 44 c-50 46 -65
52 -95 36 -9 -5 -42 -12 -72 -16 -52 -7 -54 -6 -38 11 10 10 33 18 55 18 30 1
45 9 75 41 21 22 38 43 38 47 0 3 19 30 41 58 31 40 43 49 50 39 6 -10 9 -5 9
15 0 16 3 26 7 22 12 -12 12 -70 1 -83 -7 -9 -7 -13 1 -13 6 0 14 14 18 30 3
17 11 30 17 30 6 0 29 -23 51 -51 77 -100 88 -110 134 -133 59 -29 189 -79
265 -101 l59 -18 -7 -76 c-4 -42 -14 -86 -22 -98 -8 -13 -12 -33 -9 -46 4 -12
2 -35 -4 -49 -5 -14 -13 -55 -17 -90 -6 -61 -6 -62 12 -46 17 17 20 16 63 -25
40 -38 42 -39 22 -9 -12 17 -26 32 -30 32 -3 0 -14 12 -23 28 -14 24 -14 33
-2 77 8 28 17 64 20 80 4 17 11 36 17 43 7 9 6 20 -2 35 -12 22 -1 77 15 77 3
0 4 -7 0 -15 -6 -17 9 -21 19 -4 4 5 0 18 -9 28 -34 37 -14 53 30 24 40 -26
47 -57 24 -103 -11 -22 -20 -46 -20 -53 0 -8 -7 -20 -15 -27 -8 -7 -15 -19
-15 -26 0 -28 16 -13 45 41 17 30 35 53 40 52 13 -4 19 -57 7 -57 -5 0 -12
-18 -16 -40 -3 -22 -11 -40 -17 -40 -7 0 -9 -10 -5 -26 5 -20 3 -27 -14 -31
-24 -6 -25 -16 -4 -34 11 -9 14 -22 10 -42 -3 -17 -1 -36 4 -42 8 -10 4 -20
-15 -40 -14 -16 -25 -24 -25 -20 0 4 -6 3 -13 -4 -17 -13 -74 33 -79 64 -4 23
-33 27 -33 5 0 -8 -3 -19 -7 -25 -3 -5 -14 -46 -23 -90 -9 -44 -24 -90 -32
-103 -11 -18 -13 -42 -7 -105 3 -45 10 -86 14 -92 10 -13 24 -202 22 -284 -2
-35 2 -78 7 -95 5 -17 12 -94 15 -171 6 -164 4 -145 15 -145 6 0 7 16 4 35 -4
23 -2 35 6 35 6 0 19 -16 28 -35 14 -30 33 -47 33 -30 0 13 -31 65 -39 65 -15
0 -30 53 -28 98 1 23 6 42 11 42 5 0 22 -15 37 -32 16 -18 28 -28 29 -22 0 6
-18 30 -39 53 -41 45 -53 65 -44 75 3 3 28 -17 54 -44 27 -28 49 -48 49 -45 0
9 -72 100 -86 108 -24 14 -16 30 11 23 15 -4 25 -2 25 4 0 6 -11 15 -25 20
-15 6 -25 17 -25 30 0 25 14 26 40 0 11 -11 26 -20 33 -20 6 0 -5 16 -25 35
-23 21 -43 32 -53 29 -8 -3 -15 -2 -15 4 0 5 7 13 16 16 15 6 15 8 -1 26 -10
11 -15 23 -11 28 4 4 17 -7 29 -23 12 -17 36 -44 54 -61 18 -17 33 -37 33 -46
0 -9 7 -21 16 -28 8 -8 20 -22 26 -33 11 -22 0 -18 -36 12 -12 10 -7 -3 12
-31 18 -26 32 -51 32 -57 0 -22 -32 -10 -48 19 -9 16 -23 32 -30 35 -21 8 4
-29 51 -73 21 -19 27 -34 25 -57 -2 -24 -7 -30 -25 -28 -28 3 -30 -13 -3 -27
14 -7 19 -18 15 -33 -3 -12 -6 -38 -8 -57 -2 -20 -7 -41 -11 -48 -4 -7 -4 -16
-1 -22 4 -7 -16 -61 -30 -78 -9 -10 -39 17 -56 49 -16 32 -23 38 -37 30 -9 -5
-123 -9 -252 -9 -130 0 -270 -3 -312 -7 -51 -5 -78 -4 -82 4 -17 27 -176 0
-176 -30 0 -37 28 -45 185 -58 79 -6 87 -8 64 -18 -15 -7 -29 -17 -31 -24 -2
-7 -24 -14 -49 -15 -24 -1 -46 -2 -48 -3 -11 -2 38 -38 79 -58 56 -27 217 -43
230 -23 6 9 29 13 74 11 54 -2 72 2 96 19 25 18 38 20 89 14 33 -3 68 -3 78 1
10 5 74 7 142 6 105 -3 123 -1 118 11 -4 13 20 15 156 14 l162 -1 6 120 c13
245 10 656 -5 720 -8 33 -12 63 -10 67 3 4 -2 21 -11 37 -10 21 -15 59 -15
121 0 81 -3 98 -31 158 -27 56 -32 82 -37 168 l-5 101 114 7 c259 17 392 -8
513 -94 36 -26 52 -50 89 -128 25 -54 50 -124 56 -157 6 -33 16 -175 21 -315
11 -278 10 -268 47 -420 66 -275 214 -391 480 -378 87 4 103 8 144 34 60 39
103 89 135 159 40 86 42 124 9 163 -22 26 -34 32 -66 32 -37 0 -41 -3 -59 -42
-11 -24 -20 -57 -20 -74 0 -19 -13 -52 -32 -80 -58 -86 -133 -80 -207 16 l-33
45 6 145 c3 80 10 177 15 215 6 39 10 132 10 207 1 153 -16 247 -70 379 -54
136 -204 282 -376 368 -35 17 -63 35 -63 40 0 5 28 25 63 44 34 20 73 47 87
62 14 15 47 43 75 63 101 75 183 174 217 266 55 144 58 308 7 465 -38 120
-104 199 -254 306 -89 63 -107 72 -255 121 -134 45 -193 53 -220 29 -27 -24
-48 -93 -42 -139 2 -21 0 -41 -6 -45 -7 -4 -8 -20 -2 -46 5 -21 6 -43 3 -48
-2 -4 -7 -18 -9 -30 -2 -12 -15 -62 -28 -112 -14 -49 -25 -107 -25 -127 -1
-33 -15 -57 -26 -46 -3 2 0 36 5 74 6 38 12 78 13 89 1 11 8 26 15 34 16 17 9
25 -16 17 -10 -4 -27 -23 -37 -44 -10 -20 -22 -45 -26 -54 -5 -10 -9 -30 -9
-44 0 -14 -7 -47 -15 -73 -7 -25 -19 -64 -24 -86 -45 -179 -102 -316 -167
-404 -26 -35 -45 -51 -61 -51 l-23 0 21 52 c11 29 24 55 28 58 7 5 65 131 130
284 22 52 28 91 11 81 -13 -8 -63 -110 -80 -161 -7 -21 -19 -43 -26 -47 -8 -4
-14 -17 -14 -27 0 -10 -4 -22 -10 -25 -5 -3 -10 -17 -10 -31 0 -27 -18 -65
-37 -77 -7 -4 -13 -14 -13 -22 0 -21 -34 -75 -45 -71 -15 5 -11 19 33 146 23
63 39 116 36 119 -7 7 -32 -31 -47 -74 -8 -22 -25 -66 -37 -97 -28 -76 -24
-108 17 -129 54 -27 63 -38 60 -79 -1 -21 -7 -44 -13 -51 -6 -8 -14 -26 -18
-41 -8 -34 -35 -39 -29 -5 3 16 -3 25 -23 35 -39 17 -52 2 -35 -44 13 -36 9
-56 -8 -38 -20 20 -61 113 -61 139 0 31 -44 75 -95 94 -19 7 -47 24 -63 39
-16 15 -52 46 -80 70 -29 24 -52 50 -52 59 0 12 -3 13 -14 4 -11 -9 -16 -9
-22 0 -4 7 0 17 10 25 15 10 16 16 6 35 -10 18 -10 21 1 17 20 -8 190 -133
217 -159 23 -24 128 -78 150 -79 25 0 10 20 -38 52 -28 18 -48 37 -46 43 2 5
-1 21 -6 35 -6 15 -5 32 1 45 11 24 51 285 51 336 0 20 4 49 9 65 9 29 22 140
14 117 -3 -7 -13 -13 -23 -13 -24 0 -34 -32 -25 -77 5 -28 2 -40 -15 -58 -17
-18 -20 -30 -15 -54 3 -17 3 -36 -1 -43 -4 -7 -8 -32 -9 -58 -1 -25 -10 -94
-19 -153 -14 -84 -15 -111 -6 -123 22 -26 2 -15 -107 59 -59 39 -134 86 -166
102 -56 30 -194 166 -210 209 -6 16 -4 18 21 13 24 -5 35 0 58 25 38 39 98 78
123 78 26 0 36 17 21 35 -10 12 -9 15 4 15 9 0 19 7 22 15 3 8 20 23 38 33 39
23 101 109 152 210 l37 73 -12 84 c-15 101 -33 128 -140 215 -68 56 -130 91
-178 102 -10 3 -49 2 -88 -2z m13 -46 c7 -14 16 -23 21 -20 5 3 14 -1 21 -9 7
-8 17 -15 23 -15 6 0 25 -13 42 -29 16 -16 46 -38 66 -48 20 -11 44 -27 53
-35 15 -16 14 -16 -17 -11 -30 4 -40 0 -82 -38 -52 -49 -98 -111 -110 -149 -4
-14 -18 -38 -31 -53 -20 -23 -24 -25 -24 -10 -1 10 -11 31 -24 46 l-23 29 -6
-31 c-6 -30 9 -81 23 -81 10 0 22 -37 26 -77 4 -44 -13 -42 -22 2 -10 54 -21
42 -22 -24 -1 -49 -8 -73 -41 -136 -40 -75 -51 -115 -31 -115 5 0 12 16 16 36
4 24 13 38 25 41 21 6 24 14 9 29 -8 8 -6 15 4 23 12 10 17 9 25 -7 14 -27 -4
-78 -30 -85 -13 -3 -19 -14 -19 -32 0 -17 4 -24 11 -19 7 4 10 1 7 -7 -3 -8
-11 -14 -19 -15 -8 0 -22 -2 -31 -2 -9 -1 -20 -12 -24 -24 -13 -41 -36 -70
-47 -59 -8 8 -4 18 10 33 18 20 20 30 13 73 -9 54 -9 54 48 150 23 37 31 61
26 73 -4 9 -6 23 -5 30 1 8 -5 22 -13 31 -9 10 -19 45 -22 79 -5 42 -11 62
-20 62 -10 0 -14 -13 -14 -39 0 -30 -9 -49 -42 -90 -29 -35 -45 -48 -52 -41
-7 7 -3 17 16 33 19 16 26 32 27 60 0 20 -4 37 -9 37 -6 0 -10 -8 -10 -19 0
-10 -7 -24 -15 -31 -8 -7 -15 -21 -15 -31 0 -11 -9 -28 -20 -39 -16 -16 -20
-33 -20 -90 0 -69 -15 -124 -32 -114 -4 3 -6 10 -2 15 11 18 14 58 5 63 -5 3
-14 -1 -21 -9 -7 -8 -19 -15 -26 -15 -8 0 -14 -4 -14 -10 0 -5 7 -10 15 -10
17 0 20 -16 5 -25 -5 -3 -10 -15 -10 -25 0 -14 5 -18 16 -13 12 4 15 1 12 -13
-2 -12 -11 -18 -25 -17 -24 3 -37 -20 -28 -48 5 -13 2 -17 -7 -14 -22 9 -47
-72 -35 -113 13 -42 32 -36 33 10 1 19 4 47 8 62 6 23 9 26 21 16 12 -10 16
-9 21 6 9 31 22 56 58 114 22 35 31 59 25 66 -6 7 -2 21 12 37 11 15 23 43 26
62 6 38 51 85 82 85 14 0 17 -6 14 -24 -3 -13 0 -27 6 -30 20 -13 11 -36 -20
-55 -31 -19 -59 -61 -59 -88 0 -8 -16 -31 -35 -51 -20 -21 -37 -52 -41 -72 -3
-19 -16 -53 -29 -75 -15 -26 -22 -54 -21 -80 2 -22 -4 -51 -12 -65 l-15 -25
27 24 c16 15 26 35 26 53 0 15 5 28 10 28 19 0 11 -76 -11 -104 -24 -31 -11
-35 17 -5 14 16 19 37 20 88 1 78 21 95 43 36 11 -31 10 -39 -3 -60 -9 -13
-16 -31 -16 -39 0 -8 -18 -37 -39 -64 -37 -46 -44 -50 -94 -56 -47 -6 -56 -11
-61 -32 -7 -26 -26 -33 -26 -9 0 8 -9 15 -21 15 -11 0 -17 -4 -14 -10 8 -13
-5 -13 -38 3 -33 15 -34 24 -2 49 14 11 22 25 18 31 -4 6 -9 2 -14 -11 -6 -17
-17 -22 -41 -22 -45 0 -143 92 -128 119 14 28 43 48 47 34 6 -17 51 -63 62
-63 5 0 12 -9 16 -19 9 -29 53 -20 87 18 27 30 31 32 47 17 34 -31 38 -15 5
20 -37 39 -44 81 -22 130 10 22 10 28 0 32 -6 2 -12 15 -12 29 0 21 2 24 15
13 13 -11 15 -8 15 19 0 17 -6 40 -12 51 -10 16 -10 24 0 40 6 11 12 34 12 52
1 28 2 30 11 15 11 -18 9 -34 -6 -84 -11 -34 11 -28 25 7 13 32 6 125 -11 146
-6 8 -2 16 14 27 29 19 62 86 71 145 9 59 -9 53 -25 -9 -14 -52 -43 -77 -76
-64 -8 2 -27 -2 -42 -9 -18 -10 -32 -11 -42 -5 -8 5 -27 6 -43 3 -21 -5 -27
-3 -24 7 7 22 56 35 78 21 26 -16 50 -15 50 2 0 8 15 26 33 40 47 38 67 58 67
68 0 11 -90 -50 -107 -72 -17 -22 -25 -7 -13 26 7 19 24 36 50 48 24 12 42 28
45 40 14 74 16 78 50 92 19 8 47 14 63 14 17 0 37 9 48 21 l19 22 -35 -18
c-21 -10 -30 -12 -22 -4 6 7 12 23 12 36 0 16 6 23 19 23 29 0 121 63 121 83
0 9 -6 17 -12 17 -7 0 0 12 15 25 20 18 40 25 67 25 22 0 45 6 52 15 20 22 44
18 56 -11z m313 -216 c5 -10 16 -18 23 -18 8 0 16 -16 20 -37 9 -57 7 -93 -5
-93 -6 0 -8 -11 -4 -28 9 -42 -40 -108 -121 -162 -51 -34 -70 -53 -76 -76 -8
-32 -55 -85 -132 -147 -38 -32 -49 -37 -61 -27 -16 13 -21 65 -7 74 5 3 21 37
36 76 22 55 42 85 87 130 33 32 59 65 59 73 0 25 38 41 57 26 12 -11 17 -10
27 3 7 10 25 22 41 28 23 9 30 8 37 -5 15 -26 39 -19 32 10 -4 17 -2 25 6 25
17 0 4 79 -17 102 -23 26 -27 15 -8 -22 22 -42 13 -84 -16 -75 -11 4 -25 2
-32 -3 -21 -17 -57 4 -57 33 0 14 5 25 10 25 6 0 10 7 10 15 0 13 -3 13 -20 3
-23 -15 -38 -4 -22 15 7 8 9 16 7 19 -3 3 -1 17 4 31 9 23 15 26 61 25 39 -1
54 -6 61 -20z m1029 -226 c25 -27 56 -68 68 -93 76 -157 77 -535 1 -685 -65
-129 -153 -208 -273 -246 -56 -17 -235 -37 -338 -38 l-48 0 0 36 c0 29 9 45
50 88 28 29 50 56 50 61 0 4 11 20 25 37 14 16 25 36 25 44 0 9 8 36 19 62 10
26 24 65 31 87 7 22 25 58 40 81 15 22 35 63 46 90 10 27 26 63 35 79 29 51
61 157 65 218 7 90 39 163 86 198 23 16 48 29 56 29 9 0 37 -22 62 -48z
m-2125 -212 c22 0 45 -13 82 -45 50 -44 113 -125 113 -146 0 -5 7 -12 15 -15
20 -8 19 -44 0 -44 -8 0 -41 15 -73 33 l-57 32 38 3 c24 2 37 8 34 15 -2 8
-30 12 -75 13 -40 0 -75 3 -78 7 -3 3 -11 27 -18 53 -15 59 -37 72 -30 17 l6
-38 -46 50 c-61 68 -60 79 7 71 28 -3 66 -6 82 -6z m-13 -784 c-2 -9 2 -16 8
-16 5 0 10 -6 10 -14 0 -21 19 -30 60 -31 51 0 54 -30 3 -44 -53 -15 -130 -14
-136 2 -3 8 -7 6 -12 -6 -4 -10 -2 -29 5 -42 11 -20 15 -22 24 -11 6 7 40 18
76 25 36 6 79 14 95 17 l30 7 -25 -27 c-16 -18 -19 -25 -8 -21 9 4 19 2 23 -4
3 -6 -1 -14 -9 -17 -9 -3 -16 -16 -16 -28 -1 -11 -9 -31 -20 -44 -26 -31 -59
-21 -110 31 -43 45 -52 41 -21 -9 10 -17 38 -40 61 -52 63 -31 94 -15 136 67
18 35 40 71 49 80 16 15 17 14 11 -14 -7 -37 14 -68 39 -58 15 5 17 3 11 -12
-4 -10 -2 -21 5 -25 8 -6 8 -13 0 -29 -7 -12 -8 -21 -2 -21 5 0 9 -14 9 -30
-1 -17 7 -39 17 -50 17 -19 17 -20 -6 -29 l-24 -9 22 -9 c27 -10 89 -93 70
-93 -7 0 -19 -16 -27 -35 -8 -19 -16 -35 -18 -35 -2 0 -21 14 -42 30 -21 17
-45 30 -54 30 -32 0 -15 -19 39 -45 50 -23 59 -25 98 -14 23 6 58 13 77 15 19
2 44 5 54 7 10 1 21 -3 23 -9 2 -7 -14 -14 -39 -18 -103 -15 -118 -19 -118
-27 0 -5 23 -9 50 -8 28 1 53 -1 57 -4 3 -4 -6 -7 -20 -7 -34 0 -35 -16 -2
-24 14 -4 25 -11 25 -16 0 -6 11 -10 25 -10 28 0 33 -15 9 -24 -9 -4 -14 -9
-12 -12 3 -3 23 2 43 10 50 21 53 20 20 -6 -16 -12 -49 -27 -74 -34 -43 -12
-44 -13 -13 -13 18 -1 47 6 64 15 20 10 34 12 40 6 25 -25 -20 -41 -137 -48
-38 -2 -122 -11 -185 -20 -122 -17 -196 -12 -301 21 -26 8 -52 15 -59 15 -6 0
-24 9 -40 20 -15 11 -58 30 -96 43 -82 27 -82 29 -29 153 19 45 40 104 45 132
6 27 22 81 36 118 14 38 25 76 25 84 -1 66 13 123 35 148 l25 27 -5 -27 c-3
-14 -9 -34 -13 -45 -6 -17 -6 -17 14 0 11 10 23 36 27 58 4 25 17 50 33 65 29
27 50 27 45 0z m1369 -448 c31 -32 40 -53 52 -109 7 -38 10 -69 6 -69 -5 0
-26 19 -48 43 -22 23 -41 37 -41 31 0 -6 21 -33 48 -60 l47 -49 2 -225 c1
-124 3 -254 4 -290 1 -36 -4 -112 -11 -170 -20 -164 -20 -164 13 -168 23 -3
27 -8 27 -33 0 -28 -2 -29 -48 -29 -70 0 -87 21 -77 97 12 92 17 156 16 183
-1 46 9 70 29 70 29 0 24 16 -10 37 -34 20 -44 51 -11 33 11 -5 23 -15 26 -20
3 -6 11 -10 16 -10 6 0 -1 14 -16 32 -26 31 -27 33 -8 48 24 19 20 38 -23 102
l-35 52 27 23 27 23 -27 29 c-21 22 -26 34 -21 54 4 14 1 35 -5 47 -11 21 -10
22 22 15 l33 -7 -30 30 c-17 16 -46 38 -64 49 -19 10 -37 26 -39 33 -4 11 2 9
17 -4 18 -16 21 -17 21 -3 0 8 -6 22 -14 30 -8 8 -18 31 -21 51 -6 29 -4 36 9
36 20 0 21 33 1 50 -20 17 -19 32 5 58 11 12 20 26 20 32 0 21 42 -1 81 -42z
m-1446 -378 c33 -10 72 -21 88 -25 15 -3 27 -9 27 -14 0 -11 -108 -1 -158 15
-51 17 -52 17 -52 4 0 -5 17 -14 38 -19 53 -13 229 -24 244 -15 7 4 50 9 97
10 46 2 87 7 90 12 14 20 111 2 111 -20 0 -6 -11 -19 -25 -30 -30 -24 -24 -38
16 -38 37 0 40 -26 4 -40 -35 -13 -32 -31 5 -23 26 5 30 3 30 -16 0 -12 -6
-21 -15 -21 -8 0 -31 -9 -52 -20 -45 -23 -87 -24 -313 -12 -171 10 -265 32
-265 63 0 10 13 13 50 11 37 -2 46 0 35 7 -8 6 -28 11 -45 11 -48 0 -55 10
-51 71 2 30 5 68 5 86 1 31 2 32 39 26 20 -3 64 -13 97 -23z m100 -410 c10
-11 22 -17 27 -14 5 4 24 -8 43 -26 l32 -31 7 23 6 23 13 -22 c15 -26 32 -29
32 -5 0 9 7 17 15 17 9 0 14 -8 12 -20 -2 -11 -5 -90 -8 -175 -4 -145 -3 -156
17 -183 20 -28 20 -29 2 -42 -17 -14 -98 -45 -115 -45 -4 0 -8 16 -8 36 0 56
-42 220 -96 379 -16 45 -19 105 -6 105 5 0 17 -9 27 -20z"/>
<path d="M2956 4703 c-3 -3 -6 -19 -6 -35 0 -16 -4 -37 -10 -47 -5 -10 -10
-46 -12 -80 -1 -36 -8 -67 -15 -73 -15 -12 -18 -88 -3 -88 6 0 10 -7 10 -15 0
-8 -4 -15 -9 -15 -5 0 -8 -23 -7 -50 1 -28 0 -53 -4 -55 -3 -2 -6 -25 -5 -52
0 -38 4 -48 18 -51 13 -3 17 2 15 15 -2 14 3 18 22 17 23 -2 25 2 26 40 1 22
-1 31 -3 19 -2 -13 -11 -23 -19 -23 -11 0 -14 20 -14 99 0 86 -2 100 -17 104
-15 4 -16 5 -2 6 21 1 25 18 40 156 6 61 13 113 15 117 6 9 -12 19 -20 11z"/>
<path d="M935 3612 c-88 -84 -172 -153 -300 -246 -99 -71 -162 -140 -185 -202
-18 -48 -81 -142 -138 -206 -63 -70 -61 -91 2 -29 39 38 63 73 142 207 43 72
141 171 252 254 63 47 153 122 200 167 63 59 92 80 105 77 15 -5 18 -1 15 17
-2 12 -7 24 -13 26 -5 1 -42 -28 -80 -65z"/>
<path d="M985 3490 c-10 -11 -22 -20 -27 -20 -21 0 -86 -54 -108 -90 -14 -22
-32 -42 -40 -45 -18 -7 -59 -71 -94 -147 -15 -32 -31 -58 -36 -58 -6 0 -10
-13 -10 -30 0 -23 -4 -30 -20 -30 -21 0 -27 -15 -10 -25 16 -10 -39 -58 -57
-51 -10 4 -13 1 -8 -13 7 -22 -10 -38 -45 -43 -27 -3 -42 -38 -16 -38 18 0 32
-38 18 -52 -6 -6 -20 -4 -39 6 -29 15 -30 14 -26 -8 3 -13 16 -29 29 -35 14
-6 27 -18 30 -26 12 -30 32 -14 67 55 42 81 58 109 72 130 6 8 17 33 24 55 8
22 22 46 32 53 18 12 35 64 30 95 -1 9 3 17 8 17 6 0 11 9 11 20 0 11 3 20 8
20 4 0 23 24 41 53 43 64 146 173 184 193 15 8 27 19 27 24 0 17 -26 11 -45
-10z"/>
<path d="M953 3126 c-41 -15 -50 -24 -30 -32 15 -5 14 -8 -6 -25 -19 -16 -20
-18 -4 -19 21 0 23 -16 2 -24 -8 -3 -15 -16 -15 -29 0 -13 -9 -32 -20 -42 -24
-21 -28 -105 -7 -127 8 -7 16 -24 20 -38 3 -14 13 -34 21 -45 14 -19 15 -18
14 15 -1 67 9 115 26 118 11 3 16 -4 16 -22 0 -16 6 -26 14 -26 8 0 22 -3 30
-6 12 -5 15 -2 10 10 -4 10 1 25 10 35 16 17 15 19 -5 24 -16 4 -20 11 -16 26
3 13 -1 21 -12 23 -11 3 -7 9 17 21 32 18 38 27 25 41 -5 4 -8 11 -8 14 -1 4
-6 17 -13 29 -11 20 -9 24 24 46 19 14 31 28 26 31 -5 3 -17 -3 -27 -14 -13
-15 -21 -17 -31 -9 -7 6 -10 17 -7 25 6 16 -9 16 -54 0z"/>
<path d="M1070 1212 c-22 -8 -8 -22 20 -22 17 0 39 -9 50 -20 19 -19 20 -33
20 -304 0 -215 -3 -286 -13 -294 -6 -6 -27 -12 -46 -14 -19 -2 -36 -9 -39 -15
-3 -10 56 -13 272 -13 151 0 277 3 279 8 3 4 8 54 12 111 6 85 5 103 -6 99 -7
-2 -17 -22 -21 -43 -13 -58 -44 -101 -92 -125 -37 -18 -59 -20 -142 -18 l-99
3 -3 158 -3 157 61 0 c34 0 70 -5 81 -10 24 -13 49 -61 49 -95 0 -16 6 -25 15
-25 13 0 15 21 13 148 -2 81 -7 146 -12 145 -5 -1 -16 -23 -25 -49 -19 -57
-62 -84 -133 -84 l-48 0 0 134 c0 154 -6 146 101 146 140 0 205 -38 231 -136
19 -68 33 -48 30 42 -5 126 26 113 -278 116 -145 2 -269 2 -274 0z"/>
<path d="M262 1198 c3 -7 18 -15 34 -16 55 -7 54 -2 54 -312 0 -310 1 -305
-54 -312 -16 -1 -31 -9 -34 -16 -3 -10 27 -12 140 -10 87 2 143 7 143 13 0 6
-16 11 -35 13 -58 6 -60 10 -60 168 l0 144 73 0 c109 0 146 -38 148 -152 1
-144 32 -198 110 -198 51 0 75 13 94 50 19 36 20 93 3 88 -7 -3 -14 -16 -16
-30 -2 -14 -12 -34 -23 -44 -34 -31 -51 -1 -59 108 -9 114 -25 149 -81 175
l-42 20 55 25 c91 42 125 112 90 191 -22 50 -59 80 -117 96 -59 16 -428 15
-423 -1z m400 -47 c27 -24 32 -36 36 -88 8 -113 -50 -166 -176 -161 l-67 3 -3
124 c-1 69 0 131 2 138 4 9 30 13 91 13 79 0 87 -2 117 -29z"/>
<path d="M1832 1198 c3 -7 20 -14 39 -16 19 -2 40 -8 46 -14 19 -15 19 -581 0
-596 -6 -6 -28 -12 -47 -14 -19 -2 -35 -7 -35 -13 0 -12 515 -19 526 -8 4 5
11 63 15 131 6 109 5 122 -10 122 -10 0 -16 -8 -16 -25 0 -44 -39 -130 -76
-166 l-35 -34 -102 0 -102 0 -3 294 c-1 201 1 298 9 307 6 7 24 14 41 16 18 2
33 9 36 16 3 9 -30 12 -143 12 -113 0 -146 -3 -143 -12z"/>
<path d="M2841 1188 c-5 -13 -52 -151 -105 -307 -53 -157 -104 -293 -112 -302
-9 -10 -30 -19 -47 -21 -17 -2 -32 -9 -35 -15 -3 -10 23 -13 108 -13 85 0 111
3 108 13 -3 6 -18 13 -36 15 -49 5 -54 20 -29 90 13 34 28 67 33 72 7 7 58 10
133 8 l123 -3 24 -65 c30 -80 28 -94 -15 -100 -19 -3 -36 -11 -39 -18 -3 -10
27 -12 140 -10 89 2 142 7 141 13 -2 6 -18 11 -37 13 -19 2 -40 9 -46 17 -6 7
-58 152 -114 322 l-103 308 -42 3 c-35 3 -42 0 -50 -20z m76 -258 c29 -88 53
-163 53 -165 0 -3 -52 -5 -115 -5 -87 0 -115 3 -115 13 0 7 21 73 46 147 61
179 64 184 71 176 3 -3 30 -78 60 -166z"/>
<path d="M3286 1198 c-3 -7 -7 -64 -10 -125 -5 -95 -4 -113 8 -113 16 0 20 12
31 75 11 66 42 121 77 136 42 17 97 17 109 -1 5 -8 9 -144 9 -301 0 -309 1
-304 -54 -311 -16 -1 -31 -9 -34 -16 -3 -10 27 -12 140 -10 87 2 143 7 143 13
0 6 -16 11 -35 13 -19 2 -41 10 -47 19 -10 13 -13 87 -13 293 0 314 0 315 69
314 75 -2 112 -45 135 -157 18 -88 36 -86 36 5 0 40 -3 97 -6 126 l-7 52 -274
0 c-210 0 -275 -3 -277 -12z"/>
<path d="M4101 902 c-57 -169 -110 -315 -118 -324 -9 -9 -32 -18 -52 -20 -20
-2 -35 -7 -34 -13 2 -6 51 -11 114 -13 87 -2 110 0 107 10 -3 7 -21 14 -42 16
-20 2 -39 9 -42 15 -2 7 6 44 19 82 l24 70 130 3 131 3 27 -76 c30 -81 28 -91
-19 -97 -16 -2 -31 -9 -34 -15 -3 -10 29 -13 137 -13 119 0 141 2 141 15 0 10
-10 15 -33 15 -20 0 -40 7 -49 18 -9 9 -61 155 -118 325 l-102 307 -41 0 -42
0 -104 -308z m167 46 c28 -84 54 -161 57 -170 7 -17 -2 -18 -107 -18 -63 0
-117 2 -120 5 -6 6 104 335 113 335 3 0 29 -69 57 -152z"/>
</g>
</svg>
